Roman_opsz6.ufo
<glyph name="exclam" format="2">
  <advance width="351"/>
  <unicode hex="0021"/>
  <outline>
    <contour>
      <point x="236" y="658" type="line"/>
      <point x="236" y="694"/>
      <point x="205" y="715"/>
      <point x="176" y="715" type="curve" smooth="yes"/>
      <point x="147" y="715"/>
      <point x="116" y="694"/>
      <point x="116" y="658" type="curve"/>
      <point x="156" y="222" type="line" smooth="yes"/>
      <point x="157" y="206"/>
      <point x="159" y="197"/>
      <point x="176" y="197" type="curve" smooth="yes"/>
      <point x="193" y="197"/>
      <point x="195" y="206"/>
      <point x="196" y="222" type="curve" smooth="yes"/>
    </contour>
    <contour>
      <point x="236" y="60" type="curve" smooth="yes"/>
      <point x="236" y="92"/>
      <point x="210" y="120"/>
      <point x="176" y="120" type="curve" smooth="yes"/>
      <point x="143" y="120"/>
      <point x="116" y="92"/>
      <point x="116" y="60" type="curve" smooth="yes"/>
      <point x="116" y="28"/>
      <point x="142" y="0"/>
      <point x="176" y="0" type="curve" smooth="yes"/>
      <point x="209" y="0"/>
      <point x="236" y="28"/>
    </contour>
  </outline>
</glyph>
<glyph name="percent" format="2">
  <advance width="1000"/>
  <unicode hex="0025"/>
  <outline>
    <contour>
      <point x="812" y="701" type="line" smooth="yes"/>
      <point x="819" y="710"/>
      <point x="823" y="715"/>
      <point x="823" y="724" type="curve" smooth="yes"/>
      <point x="823" y="739"/>
      <point x="811" y="750"/>
      <point x="797" y="750" type="curve" smooth="yes"/>
      <point x="785" y="750"/>
      <point x="779" y="743"/>
      <point x="771" y="733" type="curve" smooth="yes"/>
      <point x="722" y="677"/>
      <point x="654" y="638"/>
      <point x="556" y="638" type="curve" smooth="yes"/>
      <point x="462" y="638"/>
      <point x="387" y="676"/>
      <point x="337" y="714" type="curve" smooth="yes"/>
      <point x="313" y="733"/>
      <point x="290" y="750"/>
      <point x="249" y="750" type="curve" smooth="yes"/>
      <point x="160" y="750"/>
      <point x="79" y="665"/>
      <point x="79" y="549" type="curve" smooth="yes"/>
      <point x="79" y="430"/>
      <point x="162" y="347"/>
      <point x="249" y="347" type="curve" smooth="yes"/>
      <point x="335" y="347"/>
      <point x="402" y="436"/>
      <point x="402" y="548" type="curve" smooth="yes"/>
      <point x="402" y="596"/>
      <point x="390" y="632"/>
      <point x="383" y="648" type="curve"/>
      <point x="444" y="618"/>
      <point x="500" y="606"/>
      <point x="557" y="606" type="curve" smooth="yes"/>
      <point x="579" y="606"/>
      <point x="629" y="606"/>
      <point x="689" y="632" type="curve"/>
      <point x="690" y="631" type="line"/>
      <point x="189" y="-5" type="line" smooth="yes"/>
      <point x="179" y="-18"/>
      <point x="176" y="-21"/>
      <point x="176" y="-30" type="curve" smooth="yes"/>
      <point x="176" y="-44"/>
      <point x="188" y="-56"/>
      <point x="202" y="-56" type="curve" smooth="yes"/>
      <point x="215" y="-56"/>
      <point x="220" y="-49"/>
      <point x="228" y="-39" type="curve" smooth="yes"/>
    </contour>
    <contour>
      <point x="251" y="379" type="curve" smooth="yes"/>
      <point x="230" y="379"/>
      <point x="154" y="389"/>
      <point x="154" y="548" type="curve" smooth="yes"/>
      <point x="154" y="708"/>
      <point x="229" y="718"/>
      <point x="251" y="718" type="curve" smooth="yes"/>
      <point x="307" y="718"/>
      <point x="365" y="649"/>
      <point x="365" y="549" type="curve" smooth="yes"/>
      <point x="365" y="446"/>
      <point x="306" y="379"/>
    </contour>
    <contour>
      <point x="920" y="145" type="curve" smooth="yes"/>
      <point x="920" y="260"/>
      <point x="851" y="347"/>
      <point x="767" y="347" type="curve" smooth="yes"/>
      <point x="678" y="347"/>
      <point x="597" y="262"/>
      <point x="597" y="146" type="curve" smooth="yes"/>
      <point x="597" y="27"/>
      <point x="680" y="-56"/>
      <point x="767" y="-56" type="curve" smooth="yes"/>
      <point x="853" y="-56"/>
      <point x="920" y="33"/>
    </contour>
    <contour>
      <point x="769" y="-24" type="curve" smooth="yes"/>
      <point x="748" y="-24"/>
      <point x="672" y="-14"/>
      <point x="672" y="145" type="curve" smooth="yes"/>
      <point x="672" y="305"/>
      <point x="747" y="315"/>
      <point x="769" y="315" type="curve" smooth="yes"/>
      <point x="825" y="315"/>
      <point x="883" y="246"/>
      <point x="883" y="146" type="curve" smooth="yes"/>
      <point x="883" y="43"/>
      <point x="824" y="-24"/>
    </contour>
  </outline>
</glyph>
<glyph name="parenleft" format="2">
  <advance width="481"/>
  <unicode hex="0028"/>
  <outline>
    <contour>
      <point x="398" y="-226" type="curve"/>
      <point x="288" y="-142"/>
      <point x="198" y="16"/>
      <point x="198" y="250" type="curve" smooth="yes"/>
      <point x="198" y="481"/>
      <point x="286" y="641"/>
      <point x="398" y="726" type="curve"/>
      <point x="398" y="727"/>
      <point x="401" y="731"/>
      <point x="401" y="736" type="curve" smooth="yes"/>
      <point x="401" y="742"/>
      <point x="397" y="750"/>
      <point x="385" y="750" type="curve" smooth="yes"/>
      <point x="367" y="750"/>
      <point x="126" y="593"/>
      <point x="126" y="250" type="curve" smooth="yes"/>
      <point x="126" y="-92"/>
      <point x="366" y="-250"/>
      <point x="385" y="-250" type="curve" smooth="yes"/>
      <point x="397" y="-250"/>
      <point x="401" y="-242"/>
      <point x="401" y="-236" type="curve" smooth="yes"/>
      <point x="401" y="-231"/>
      <point x="398" y="-227"/>
    </contour>
  </outline>
</glyph>
<glyph name="parenright" format="2">
  <advance width="481"/>
  <unicode hex="0029"/>
  <outline>
    <contour>
      <point x="354" y="250" type="curve" smooth="yes"/>
      <point x="354" y="592"/>
      <point x="114" y="750"/>
      <point x="95" y="750" type="curve" smooth="yes"/>
      <point x="83" y="750"/>
      <point x="80" y="741"/>
      <point x="80" y="736" type="curve" smooth="yes"/>
      <point x="80" y="730"/>
      <point x="81" y="729"/>
      <point x="99" y="713" type="curve" smooth="yes"/>
      <point x="189" y="636"/>
      <point x="282" y="488"/>
      <point x="282" y="250" type="curve" smooth="yes"/>
      <point x="282" y="38"/>
      <point x="208" y="-121"/>
      <point x="95" y="-216" type="curve" smooth="yes"/>
      <point x="81" y="-229"/>
      <point x="80" y="-230"/>
      <point x="80" y="-236" type="curve" smooth="yes"/>
      <point x="80" y="-241"/>
      <point x="83" y="-250"/>
      <point x="95" y="-250" type="curve" smooth="yes"/>
      <point x="113" y="-250"/>
      <point x="354" y="-93"/>
    </contour>
  </outline>
</glyph>
<glyph name="comma" format="2">
  <advance width="351"/>
  <unicode hex="002C"/>
  <outline>
    <contour>
      <point x="145" y="-194" type="curve" smooth="yes"/>
      <point x="159" y="-194"/>
      <point x="249" y="-115"/>
      <point x="249" y="9" type="curve" smooth="yes"/>
      <point x="249" y="71"/>
      <point x="223" y="120"/>
      <point x="176" y="120" type="curve" smooth="yes"/>
      <point x="137" y="120"/>
      <point x="116" y="91"/>
      <point x="116" y="60" type="curve" smooth="yes"/>
      <point x="116" y="29"/>
      <point x="137" y="0"/>
      <point x="176" y="0" type="curve" smooth="yes"/>
      <point x="196" y="0"/>
      <point x="210" y="8"/>
      <point x="217" y="15" type="curve"/>
      <point x="217" y="-75"/>
      <point x="175" y="-129"/>
      <point x="141" y="-159" type="curve" smooth="yes"/>
      <point x="131" y="-168"/>
      <point x="128" y="-171"/>
      <point x="128" y="-177" type="curve" smooth="yes"/>
      <point x="128" y="-185"/>
      <point x="137" y="-194"/>
    </contour>
  </outline>
</glyph>
<glyph name="zero" format="2">
  <advance width="611"/>
  <unicode hex="0030"/>
  <outline>
    <contour>
      <point x="550" y="319" type="curve" smooth="yes"/>
      <point x="550" y="392"/>
      <point x="550" y="665"/>
      <point x="305" y="665" type="curve" smooth="yes"/>
      <point x="60" y="665"/>
      <point x="60" y="392"/>
      <point x="60" y="319" type="curve" smooth="yes"/>
      <point x="60" y="247"/>
      <point x="60" y="-21"/>
      <point x="305" y="-21" type="curve" smooth="yes"/>
      <point x="550" y="-21"/>
      <point x="550" y="247"/>
    </contour>
    <contour>
      <point x="305" y="11" type="curve" smooth="yes"/>
      <point x="263" y="11"/>
      <point x="195" y="31"/>
      <point x="171" y="114" type="curve" smooth="yes"/>
      <point x="155" y="172"/>
      <point x="155" y="270"/>
      <point x="155" y="332" type="curve" smooth="yes"/>
      <point x="155" y="399"/>
      <point x="155" y="476"/>
      <point x="169" y="530" type="curve" smooth="yes"/>
      <point x="194" y="620"/>
      <point x="270" y="633"/>
      <point x="305" y="633" type="curve" smooth="yes"/>
      <point x="351" y="633"/>
      <point x="417" y="611"/>
      <point x="439" y="535" type="curve" smooth="yes"/>
      <point x="454" y="482"/>
      <point x="455" y="409"/>
      <point x="455" y="332" type="curve" smooth="yes"/>
      <point x="455" y="268"/>
      <point x="455" y="167"/>
      <point x="438" y="111" type="curve" smooth="yes"/>
      <point x="410" y="24"/>
      <point x="338" y="11"/>
    </contour>
  </outline>
</glyph>
<glyph name="one" format="2">
  <advance width="611"/>
  <unicode hex="0031"/>
  <outline>
    <contour>
      <point x="359" y="635" type="line" smooth="yes"/>
      <point x="359" y="665"/>
      <point x="355" y="665"/>
      <point x="325" y="665" type="curve"/>
      <point x="259" y="601"/>
      <point x="157" y="601"/>
      <point x="121" y="601" type="curve"/>
      <point x="121" y="562" type="line"/>
      <point x="147" y="562"/>
      <point x="213" y="562"/>
      <point x="273" y="590" type="curve"/>
      <point x="273" y="85" type="line" smooth="yes"/>
      <point x="273" y="52"/>
      <point x="273" y="39"/>
      <point x="170" y="39" type="curve" smooth="yes"/>
      <point x="127" y="39" type="line"/>
      <point x="127" y="0" type="line"/>
      <point x="182" y="4"/>
      <point x="260" y="4"/>
      <point x="316" y="4" type="curve" smooth="yes"/>
      <point x="372" y="4"/>
      <point x="450" y="4"/>
      <point x="505" y="0" type="curve"/>
      <point x="505" y="39" type="line"/>
      <point x="462" y="39" type="line" smooth="yes"/>
      <point x="359" y="39"/>
      <point x="359" y="52"/>
      <point x="359" y="85" type="curve" smooth="yes"/>
    </contour>
  </outline>
</glyph>
<glyph name="two" format="2">
  <advance width="611"/>
  <unicode hex="0032"/>
  <outline>
    <contour>
      <point x="72" y="0" type="curve"/>
      <point x="507" y="0" type="line"/>
      <point x="538" y="187" type="line"/>
      <point x="501" y="187" type="line"/>
      <point x="499" y="173"/>
      <point x="489" y="107"/>
      <point x="474" y="96" type="curve"/>
      <point x="467" y="90"/>
      <point x="386" y="90"/>
      <point x="372" y="90" type="curve" smooth="yes"/>
      <point x="185" y="90" type="line"/>
      <point x="442" y="293" type="line" smooth="yes"/>
      <point x="496" y="336"/>
      <point x="538" y="396"/>
      <point x="538" y="467" type="curve" smooth="yes"/>
      <point x="538" y="592"/>
      <point x="425" y="665"/>
      <point x="291" y="665" type="curve" smooth="yes"/>
      <point x="162" y="665"/>
      <point x="72" y="580"/>
      <point x="72" y="486" type="curve" smooth="yes"/>
      <point x="72" y="435"/>
      <point x="115" y="429"/>
      <point x="126" y="429" type="curve" smooth="yes"/>
      <point x="151" y="429"/>
      <point x="180" y="447"/>
      <point x="180" y="483" type="curve" smooth="yes"/>
      <point x="180" y="505"/>
      <point x="167" y="537"/>
      <point x="123" y="537" type="curve"/>
      <point x="146" y="588"/>
      <point x="207" y="626"/>
      <point x="276" y="626" type="curve" smooth="yes"/>
      <point x="381" y="626"/>
      <point x="437" y="548"/>
      <point x="437" y="467" type="curve" smooth="yes"/>
      <point x="437" y="396"/>
      <point x="390" y="323"/>
      <point x="320" y="259" type="curve" smooth="yes"/>
      <point x="83" y="42" type="line" smooth="yes"/>
      <point x="73" y="32"/>
      <point x="72" y="31"/>
    </contour>
  </outline>
</glyph>
<glyph name="seven" format="2">
  <advance width="611"/>
  <unicode hex="0037"/>
  <outline>
    <contour>
      <point x="571" y="604" type="line" smooth="yes"/>
      <point x="580" y="614"/>
      <point x="580" y="616"/>
      <point x="580" y="644" type="curve"/>
      <point x="322" y="644" type="line" smooth="yes"/>
      <point x="281" y="644"/>
      <point x="257" y="645"/>
      <point x="218" y="648" type="curve" smooth="yes"/>
      <point x="169" y="651"/>
      <point x="157" y="652"/>
      <point x="152" y="676" type="curve"/>
      <point x="115" y="676" type="line"/>
      <point x="79" y="457" type="line"/>
      <point x="116" y="457" type="line"/>
      <point x="119" y="478"/>
      <point x="129" y="537"/>
      <point x="144" y="548" type="curve" smooth="yes"/>
      <point x="152" y="554"/>
      <point x="238" y="554"/>
      <point x="253" y="554" type="curve" smooth="yes"/>
      <point x="479" y="554" type="line"/>
      <point x="468" y="540"/>
      <point x="414" y="476"/>
      <point x="390" y="447" type="curve" smooth="yes"/>
      <point x="293" y="330"/>
      <point x="225" y="188"/>
      <point x="225" y="36" type="curve" smooth="yes"/>
      <point x="225" y="27"/>
      <point x="225" y="-21"/>
      <point x="273" y="-21" type="curve" smooth="yes"/>
      <point x="322" y="-21"/>
      <point x="322" y="25"/>
      <point x="322" y="38" type="curve" smooth="yes"/>
      <point x="322" y="66" type="line" smooth="yes"/>
      <point x="322" y="258"/>
      <point x="363" y="356"/>
      <point x="413" y="416" type="curve" smooth="yes"/>
    </contour>
  </outline>
</glyph>
<glyph name="B" format="2">
  <advance width="850"/>
  <unicode hex="0042"/>
  <outline>
    <contour>
      <point x="69" y="683" type="line"/>
      <point x="69" y="644" type="line"/>
      <point x="95" y="644" type="line" smooth="yes"/>
      <point x="175" y="644"/>
      <point x="175" y="632"/>
      <point x="175" y="599" type="curve" smooth="yes"/>
      <point x="175" y="84" type="line" smooth="yes"/>
      <point x="175" y="51"/>
      <point x="175" y="39"/>
      <point x="95" y="39" type="curve" smooth="yes"/>
      <point x="69" y="39" type="line"/>
      <point x="69" y="0" type="line"/>
      <point x="514" y="0" type="line" smooth="yes"/>
      <point x="660" y="0"/>
      <point x="771" y="86"/>
      <point x="771" y="184" type="curve" smooth="yes"/>
      <point x="771" y="262"/>
      <point x="693" y="340"/>
      <point x="552" y="358" type="curve"/>
      <point x="654" y="375"/>
      <point x="739" y="436"/>
      <point x="739" y="513" type="curve" smooth="yes"/>
      <point x="739" y="604"/>
      <point x="626" y="683"/>
      <point x="483" y="683" type="curve" smooth="yes"/>
    </contour>
    <contour>
      <point x="268" y="371" type="line"/>
      <point x="268" y="605" type="line" smooth="yes"/>
      <point x="268" y="636"/>
      <point x="268" y="644"/>
      <point x="317" y="644" type="curve" smooth="yes"/>
      <point x="476" y="644" type="line" smooth="yes"/>
      <point x="575" y="644"/>
      <point x="635" y="579"/>
      <point x="635" y="513" type="curve" smooth="yes"/>
      <point x="635" y="437"/>
      <point x="558" y="371"/>
      <point x="443" y="371" type="curve" smooth="yes"/>
    </contour>
    <contour>
      <point x="317" y="39" type="line" smooth="yes"/>
      <point x="268" y="39"/>
      <point x="268" y="47"/>
      <point x="268" y="78" type="curve" smooth="yes"/>
      <point x="268" y="339" type="line"/>
      <point x="494" y="339" type="line" smooth="yes"/>
      <point x="602" y="339"/>
      <point x="664" y="257"/>
      <point x="664" y="185" type="curve" smooth="yes"/>
      <point x="664" y="112"/>
      <point x="591" y="39"/>
      <point x="478" y="39" type="curve" smooth="yes"/>
    </contour>
  </outline>
</glyph>
<glyph name="C" format="2">
  <advance width="870"/>
  <unicode hex="0043"/>
  <outline>
    <contour>
      <point x="79" y="342" type="curve" smooth="yes"/>
      <point x="79" y="141"/>
      <point x="260" y="-21"/>
      <point x="483" y="-21" type="curve" smooth="yes"/>
      <point x="666" y="-21"/>
      <point x="790" y="107"/>
      <point x="790" y="234" type="curve" smooth="yes"/>
      <point x="790" y="245"/>
      <point x="789" y="255"/>
      <point x="771" y="255" type="curve" smooth="yes"/>
      <point x="755" y="255"/>
      <point x="754" y="247"/>
      <point x="753" y="238" type="curve"/>
      <point x="745" y="85"/>
      <point x="606" y="18"/>
      <point x="496" y="18" type="curve" smooth="yes"/>
      <point x="376" y="18"/>
      <point x="190" y="89"/>
      <point x="190" y="342" type="curve" smooth="yes"/>
      <point x="190" y="590"/>
      <point x="371" y="665"/>
      <point x="495" y="665" type="curve" smooth="yes"/>
      <point x="608" y="665"/>
      <point x="725" y="588"/>
      <point x="750" y="435" type="curve" smooth="yes"/>
      <point x="752" y="422"/>
      <point x="753" y="415"/>
      <point x="770" y="415" type="curve" smooth="yes"/>
      <point x="790" y="415"/>
      <point x="790" y="423"/>
      <point x="790" y="443" type="curve" smooth="yes"/>
      <point x="790" y="676" type="line" smooth="yes"/>
      <point x="790" y="693"/>
      <point x="790" y="704"/>
      <point x="774" y="704" type="curve" smooth="yes"/>
      <point x="765" y="704"/>
      <point x="763" y="700"/>
      <point x="756" y="691" type="curve" smooth="yes"/>
      <point x="701" y="615" type="line"/>
      <point x="643" y="673"/>
      <point x="564" y="704"/>
      <point x="482" y="704" type="curve" smooth="yes"/>
      <point x="260" y="704"/>
      <point x="79" y="540"/>
    </contour>
  </outline>
</glyph>
<glyph name="F" format="2">
  <advance width="786"/>
  <unicode hex="0046"/>
  <outline>
    <contour>
      <point x="691" y="679" type="line"/>
      <point x="65" y="679" type="line"/>
      <point x="65" y="640" type="line"/>
      <point x="91" y="640" type="line" smooth="yes"/>
      <point x="171" y="640"/>
      <point x="171" y="628"/>
      <point x="171" y="595" type="curve" smooth="yes"/>
      <point x="171" y="84" type="line" smooth="yes"/>
      <point x="171" y="51"/>
      <point x="171" y="39"/>
      <point x="91" y="39" type="curve" smooth="yes"/>
      <point x="65" y="39" type="line"/>
      <point x="65" y="0" type="line"/>
      <point x="84" y="1"/>
      <point x="179" y="4"/>
      <point x="224" y="4" type="curve" smooth="yes"/>
      <point x="278" y="4"/>
      <point x="351" y="4"/>
      <point x="404" y="0" type="curve"/>
      <point x="404" y="39" type="line"/>
      <point x="367" y="39" type="line" smooth="yes"/>
      <point x="271" y="39"/>
      <point x="271" y="51"/>
      <point x="271" y="84" type="curve" smooth="yes"/>
      <point x="271" y="320" type="line"/>
      <point x="374" y="320" type="line" smooth="yes"/>
      <point x="476" y="320"/>
      <point x="493" y="292"/>
      <point x="493" y="203" type="curve"/>
      <point x="530" y="203" type="line"/>
      <point x="530" y="476" type="line"/>
      <point x="493" y="476" type="line"/>
      <point x="493" y="387"/>
      <point x="476" y="359"/>
      <point x="374" y="359" type="curve" smooth="yes"/>
      <point x="271" y="359" type="line"/>
      <point x="271" y="601" type="line" smooth="yes"/>
      <point x="271" y="632"/>
      <point x="271" y="640"/>
      <point x="320" y="640" type="curve" smooth="yes"/>
      <point x="470" y="640" type="line" smooth="yes"/>
      <point x="641" y="640"/>
      <point x="666" y="583"/>
      <point x="685" y="446" type="curve"/>
      <point x="722" y="446" type="line"/>
    </contour>
  </outline>
</glyph>
<glyph name="H" format="2">
  <advance width="896"/>
  <unicode hex="0048"/>
  <outline>
    <contour>
      <point x="65" y="0" type="line"/>
      <point x="79" y="1"/>
      <point x="179" y="4"/>
      <point x="221" y="4" type="curve" smooth="yes"/>
      <point x="263" y="4"/>
      <point x="361" y="1"/>
      <point x="377" y="0" type="curve"/>
      <point x="377" y="39" type="line"/>
      <point x="351" y="39" type="line" smooth="yes"/>
      <point x="271" y="39"/>
      <point x="271" y="51"/>
      <point x="271" y="84" type="curve" smooth="yes"/>
      <point x="271" y="336" type="line"/>
      <point x="624" y="336" type="line"/>
      <point x="624" y="84" type="line" smooth="yes"/>
      <point x="624" y="51"/>
      <point x="624" y="39"/>
      <point x="544" y="39" type="curve" smooth="yes"/>
      <point x="518" y="39" type="line"/>
      <point x="518" y="0" type="line"/>
      <point x="532" y="1"/>
      <point x="632" y="4"/>
      <point x="674" y="4" type="curve" smooth="yes"/>
      <point x="716" y="4"/>
      <point x="814" y="1"/>
      <point x="830" y="0" type="curve"/>
      <point x="830" y="39" type="line"/>
      <point x="804" y="39" type="line" smooth="yes"/>
      <point x="724" y="39"/>
      <point x="724" y="51"/>
      <point x="724" y="84" type="curve" smooth="yes"/>
      <point x="724" y="599" type="line" smooth="yes"/>
      <point x="724" y="632"/>
      <point x="724" y="644"/>
      <point x="804" y="644" type="curve" smooth="yes"/>
      <point x="830" y="644" type="line"/>
      <point x="830" y="683" type="line"/>
      <point x="816" y="682"/>
      <point x="716" y="679"/>
      <point x="674" y="679" type="curve" smooth="yes"/>
      <point x="632" y="679"/>
      <point x="534" y="682"/>
      <point x="518" y="683" type="curve"/>
      <point x="518" y="644" type="line"/>
      <point x="544" y="644" type="line" smooth="yes"/>
      <point x="624" y="644"/>
      <point x="624" y="632"/>
      <point x="624" y="599" type="curve" smooth="yes"/>
      <point x="624" y="375" type="line"/>
      <point x="271" y="375" type="line"/>
      <point x="271" y="599" type="line" smooth="yes"/>
      <point x="271" y="632"/>
      <point x="271" y="644"/>
      <point x="351" y="644" type="curve" smooth="yes"/>
      <point x="377" y="644" type="line"/>
      <point x="377" y="683" type="line"/>
      <point x="363" y="682"/>
      <point x="263" y="679"/>
      <point x="221" y="679" type="curve" smooth="yes"/>
      <point x="179" y="679"/>
      <point x="81" y="682"/>
      <point x="65" y="683" type="curve"/>
      <point x="65" y="644" type="line"/>
      <point x="91" y="644" type="line" smooth="yes"/>
      <point x="171" y="644"/>
      <point x="171" y="632"/>
      <point x="171" y="599" type="curve" smooth="yes"/>
      <point x="171" y="84" type="line" smooth="yes"/>
      <point x="171" y="51"/>
      <point x="171" y="39"/>
      <point x="91" y="39" type="curve" smooth="yes"/>
      <point x="65" y="39" type="line"/>
    </contour>
  </outline>
</glyph>
<glyph name="K" format="2">
  <advance width="928"/>
  <unicode hex="004B"/>
  <outline>
    <contour>
      <point x="482" y="415" type="line"/>
      <point x="696" y="587" type="line" smooth="yes"/>
      <point x="764" y="641"/>
      <point x="824" y="644"/>
      <point x="849" y="644" type="curve"/>
      <point x="849" y="683" type="line"/>
      <point x="834" y="682"/>
      <point x="796" y="679"/>
      <point x="757" y="679" type="curve" smooth="yes"/>
      <point x="715" y="679"/>
      <point x="636" y="682"/>
      <point x="617" y="683" type="curve"/>
      <point x="617" y="644" type="line"/>
      <point x="632" y="644"/>
      <point x="653" y="638"/>
      <point x="653" y="617" type="curve" smooth="yes"/>
      <point x="653" y="601"/>
      <point x="638" y="589"/>
      <point x="631" y="583" type="curve" smooth="yes"/>
      <point x="271" y="292" type="line"/>
      <point x="271" y="599" type="line" smooth="yes"/>
      <point x="271" y="632"/>
      <point x="271" y="644"/>
      <point x="351" y="644" type="curve" smooth="yes"/>
      <point x="377" y="644" type="line"/>
      <point x="377" y="683" type="line"/>
      <point x="363" y="682"/>
      <point x="263" y="679"/>
      <point x="221" y="679" type="curve" smooth="yes"/>
      <point x="179" y="679"/>
      <point x="81" y="682"/>
      <point x="65" y="683" type="curve"/>
      <point x="65" y="644" type="line"/>
      <point x="91" y="644" type="line" smooth="yes"/>
      <point x="171" y="644"/>
      <point x="171" y="632"/>
      <point x="171" y="599" type="curve" smooth="yes"/>
      <point x="171" y="84" type="line" smooth="yes"/>
      <point x="171" y="51"/>
      <point x="171" y="39"/>
      <point x="91" y="39" type="curve" smooth="yes"/>
      <point x="65" y="39" type="line"/>
      <point x="65" y="0" type="line"/>
      <point x="79" y="1"/>
      <point x="179" y="4"/>
      <point x="221" y="4" type="curve" smooth="yes"/>
      <point x="263" y="4"/>
      <point x="361" y="1"/>
      <point x="377" y="0" type="curve"/>
      <point x="377" y="39" type="line"/>
      <point x="351" y="39" type="line" smooth="yes"/>
      <point x="271" y="39"/>
      <point x="271" y="51"/>
      <point x="271" y="84" type="curve" smooth="yes"/>
      <point x="271" y="244" type="line"/>
      <point x="413" y="359" type="line"/>
      <point x="626" y="96" type="line" smooth="yes"/>
      <point x="634" y="86"/>
      <point x="642" y="76"/>
      <point x="642" y="65" type="curve" smooth="yes"/>
      <point x="642" y="39"/>
      <point x="609" y="39"/>
      <point x="589" y="39" type="curve"/>
      <point x="589" y="0" type="line"/>
      <point x="612" y="1"/>
      <point x="705" y="4"/>
      <point x="743" y="4" type="curve" smooth="yes"/>
      <point x="766" y="4"/>
      <point x="834" y="2"/>
      <point x="865" y="0" type="curve"/>
      <point x="865" y="39" type="line"/>
      <point x="812" y="39"/>
      <point x="786" y="41"/>
      <point x="751" y="84" type="curve" smooth="yes"/>
    </contour>
  </outline>
</glyph>
<glyph name="O" format="2">
  <advance width="935"/>
  <unicode hex="004F"/>
  <outline>
    <contour>
      <point x="855" y="339" type="curve" smooth="yes"/>
      <point x="855" y="536"/>
      <point x="685" y="704"/>
      <point x="467" y="704" type="curve" smooth="yes"/>
      <point x="249" y="704"/>
      <point x="79" y="536"/>
      <point x="79" y="339" type="curve" smooth="yes"/>
      <point x="79" y="141"/>
      <point x="251" y="-21"/>
      <point x="467" y="-21" type="curve" smooth="yes"/>
      <point x="683" y="-21"/>
      <point x="855" y="141"/>
    </contour>
    <contour>
      <point x="467" y="16" type="curve" smooth="yes"/>
      <point x="338" y="16"/>
      <point x="190" y="115"/>
      <point x="190" y="354" type="curve" smooth="yes"/>
      <point x="190" y="578"/>
      <point x="340" y="669"/>
      <point x="467" y="669" type="curve" smooth="yes"/>
      <point x="595" y="669"/>
      <point x="744" y="577"/>
      <point x="744" y="354" type="curve" smooth="yes"/>
      <point x="744" y="115"/>
      <point x="596" y="16"/>
    </contour>
  </outline>
</glyph>
<glyph name="P" format="2">
  <advance width="818"/>
  <unicode hex="0050"/>
  <outline>
    <contour>
      <point x="273" y="307" type="line"/>
      <point x="476" y="307" type="line" smooth="yes"/>
      <point x="605" y="307"/>
      <point x="739" y="385"/>
      <point x="739" y="493" type="curve" smooth="yes"/>
      <point x="739" y="597"/>
      <point x="616" y="683"/>
      <point x="467" y="683" type="curve" smooth="yes"/>
      <point x="67" y="683" type="line"/>
      <point x="67" y="644" type="line"/>
      <point x="93" y="644" type="line" smooth="yes"/>
      <point x="173" y="644"/>
      <point x="173" y="632"/>
      <point x="173" y="599" type="curve" smooth="yes"/>
      <point x="173" y="84" type="line" smooth="yes"/>
      <point x="173" y="51"/>
      <point x="173" y="39"/>
      <point x="93" y="39" type="curve" smooth="yes"/>
      <point x="67" y="39" type="line"/>
      <point x="67" y="0" type="line"/>
      <point x="81" y="1"/>
      <point x="181" y="4"/>
      <point x="223" y="4" type="curve" smooth="yes"/>
      <point x="265" y="4"/>
      <point x="363" y="1"/>
      <point x="379" y="0" type="curve"/>
      <point x="379" y="39" type="line"/>
      <point x="353" y="39" type="line" smooth="yes"/>
      <point x="273" y="39"/>
      <point x="273" y="51"/>
      <point x="273" y="84" type="curve" smooth="yes"/>
    </contour>
    <contour>
      <point x="442" y="644" type="line" smooth="yes"/>
      <point x="599" y="644"/>
      <point x="628" y="570"/>
      <point x="628" y="493" type="curve" smooth="yes"/>
      <point x="628" y="432"/>
      <point x="613" y="342"/>
      <point x="442" y="342" type="curve" smooth="yes"/>
      <point x="269" y="342" type="line"/>
      <point x="269" y="605" type="line" smooth="yes"/>
      <point x="269" y="636"/>
      <point x="269" y="644"/>
      <point x="318" y="644" type="curve" smooth="yes"/>
    </contour>
  </outline>
</glyph>
<glyph name="R" format="2">
  <advance width="883"/>
  <unicode hex="0052"/>
  <outline>
    <contour>
      <point x="173" y="84" type="line" smooth="yes"/>
      <point x="173" y="51"/>
      <point x="173" y="39"/>
      <point x="93" y="39" type="curve" smooth="yes"/>
      <point x="67" y="39" type="line"/>
      <point x="67" y="0" type="line"/>
      <point x="82" y="1"/>
      <point x="181" y="4"/>
      <point x="221" y="4" type="curve" smooth="yes"/>
      <point x="261" y="4"/>
      <point x="349" y="1"/>
      <point x="375" y="0" type="curve"/>
      <point x="375" y="39" type="line"/>
      <point x="349" y="39" type="line" smooth="yes"/>
      <point x="269" y="39"/>
      <point x="269" y="51"/>
      <point x="269" y="84" type="curve" smooth="yes"/>
      <point x="269" y="326" type="line"/>
      <point x="411" y="326" type="line" smooth="yes"/>
      <point x="464" y="326"/>
      <point x="505" y="310"/>
      <point x="531" y="288" type="curve" smooth="yes"/>
      <point x="568" y="256"/>
      <point x="568" y="234"/>
      <point x="568" y="163" type="curve" smooth="yes"/>
      <point x="568" y="96"/>
      <point x="568" y="55"/>
      <point x="623" y="13" type="curve" smooth="yes"/>
      <point x="648" y="-5"/>
      <point x="697" y="-21"/>
      <point x="751" y="-21" type="curve" smooth="yes"/>
      <point x="837" y="-21"/>
      <point x="865" y="55"/>
      <point x="865" y="93" type="curve" smooth="yes"/>
      <point x="865" y="99"/>
      <point x="865" y="114"/>
      <point x="846" y="114" type="curve" smooth="yes"/>
      <point x="830" y="114"/>
      <point x="829" y="102"/>
      <point x="828" y="92" type="curve" smooth="yes"/>
      <point x="824" y="44"/>
      <point x="794" y="11"/>
      <point x="755" y="11" type="curve" smooth="yes"/>
      <point x="699" y="11"/>
      <point x="686" y="70"/>
      <point x="678" y="134" type="curve" smooth="yes"/>
      <point x="675" y="161"/>
      <point x="669" y="208"/>
      <point x="668" y="215" type="curve" smooth="yes"/>
      <point x="657" y="293"/>
      <point x="593" y="325"/>
      <point x="543" y="341" type="curve"/>
      <point x="634" y="366"/>
      <point x="722" y="422"/>
      <point x="722" y="501" type="curve" smooth="yes"/>
      <point x="722" y="604"/>
      <point x="579" y="683"/>
      <point x="421" y="683" type="curve" smooth="yes"/>
      <point x="67" y="683" type="line"/>
      <point x="67" y="644" type="line"/>
      <point x="93" y="644" type="line" smooth="yes"/>
      <point x="173" y="644"/>
      <point x="173" y="632"/>
      <point x="173" y="599" type="curve" smooth="yes"/>
    </contour>
    <contour>
      <point x="269" y="358" type="line"/>
      <point x="269" y="605" type="line" smooth="yes"/>
      <point x="269" y="633"/>
      <point x="271" y="640"/>
      <point x="296" y="643" type="curve" smooth="yes"/>
      <point x="304" y="644"/>
      <point x="342" y="644"/>
      <point x="365" y="644" type="curve" smooth="yes"/>
      <point x="468" y="644"/>
      <point x="611" y="644"/>
      <point x="611" y="501" type="curve" smooth="yes"/>
      <point x="611" y="392"/>
      <point x="521" y="358"/>
      <point x="409" y="358" type="curve" smooth="yes"/>
    </contour>
  </outline>
</glyph>
<glyph name="U" format="2">
  <advance width="896"/>
  <unicode hex="0055"/>
  <outline>
    <contour>
      <point x="171" y="230" type="line" smooth="yes"/>
      <point x="171" y="86"/>
      <point x="307" y="-21"/>
      <point x="461" y="-21" type="curve" smooth="yes"/>
      <point x="611" y="-21"/>
      <point x="724" y="93"/>
      <point x="724" y="229" type="curve" smooth="yes"/>
      <point x="724" y="573" type="line" smooth="yes"/>
      <point x="724" y="599"/>
      <point x="724" y="644"/>
      <point x="830" y="644" type="curve"/>
      <point x="830" y="683" type="line"/>
      <point x="810" y="682"/>
      <point x="742" y="679"/>
      <point x="705" y="679" type="curve" smooth="yes"/>
      <point x="668" y="679"/>
      <point x="601" y="681"/>
      <point x="579" y="683" type="curve"/>
      <point x="579" y="644" type="line"/>
      <point x="685" y="644"/>
      <point x="685" y="599"/>
      <point x="685" y="573" type="curve" smooth="yes"/>
      <point x="685" y="232" type="line" smooth="yes"/>
      <point x="685" y="97"/>
      <point x="575" y="18"/>
      <point x="464" y="18" type="curve" smooth="yes"/>
      <point x="394" y="18"/>
      <point x="271" y="54"/>
      <point x="271" y="228" type="curve" smooth="yes"/>
      <point x="271" y="599" type="line" smooth="yes"/>
      <point x="271" y="632"/>
      <point x="271" y="644"/>
      <point x="351" y="644" type="curve" smooth="yes"/>
      <point x="377" y="644" type="line"/>
      <point x="377" y="683" type="line"/>
      <point x="363" y="682"/>
      <point x="263" y="679"/>
      <point x="221" y="679" type="curve" smooth="yes"/>
      <point x="179" y="679"/>
      <point x="81" y="682"/>
      <point x="65" y="683" type="curve"/>
      <point x="65" y="644" type="line"/>
      <point x="91" y="644" type="line" smooth="yes"/>
      <point x="171" y="644"/>
      <point x="171" y="632"/>
      <point x="171" y="599" type="curve" smooth="yes"/>
    </contour>
  </outline>
</glyph>
<glyph name="W" format="2">
  <advance width="1220"/>
  <unicode hex="0057"/>
  <outline>
    <contour>
      <point x="1076" y="580" type="line" smooth="yes"/>
      <point x="1083" y="599"/>
      <point x="1100" y="644"/>
      <point x="1182" y="644" type="curve"/>
      <point x="1182" y="683" type="line"/>
      <point x="1159" y="681"/>
      <point x="1113" y="679"/>
      <point x="1083" y="679" type="curve" smooth="yes"/>
      <point x="1036" y="679"/>
      <point x="964" y="682"/>
      <point x="953" y="683" type="curve"/>
      <point x="953" y="644" type="line"/>
      <point x="1014" y="643"/>
      <point x="1039" y="617"/>
      <point x="1039" y="594" type="curve" smooth="yes"/>
      <point x="1039" y="590"/>
      <point x="1039" y="587"/>
      <point x="1034" y="574" type="curve" smooth="yes"/>
      <point x="862" y="116" type="line"/>
      <point x="680" y="599" type="line" smooth="yes"/>
      <point x="675" y="612"/>
      <point x="675" y="614"/>
      <point x="675" y="617" type="curve" smooth="yes"/>
      <point x="675" y="644"/>
      <point x="733" y="644"/>
      <point x="760" y="644" type="curve"/>
      <point x="760" y="683" type="line"/>
      <point x="745" y="682"/>
      <point x="646" y="679"/>
      <point x="607" y="679" type="curve" smooth="yes"/>
      <point x="567" y="679"/>
      <point x="502" y="681"/>
      <point x="478" y="683" type="curve"/>
      <point x="478" y="644" type="line"/>
      <point x="495" y="644" type="line" smooth="yes"/>
      <point x="548" y="644"/>
      <point x="556" y="636"/>
      <point x="563" y="628" type="curve" smooth="yes"/>
      <point x="573" y="617"/>
      <point x="589" y="567"/>
      <point x="589" y="566" type="curve" smooth="yes"/>
      <point x="589" y="565"/>
      <point x="589" y="563"/>
      <point x="585" y="553" type="curve" smooth="yes"/>
      <point x="421" y="116" type="line"/>
      <point x="239" y="599" type="line" smooth="yes"/>
      <point x="234" y="612"/>
      <point x="234" y="614"/>
      <point x="234" y="617" type="curve" smooth="yes"/>
      <point x="234" y="644"/>
      <point x="292" y="644"/>
      <point x="319" y="644" type="curve"/>
      <point x="319" y="683" type="line"/>
      <point x="304" y="682"/>
      <point x="205" y="679"/>
      <point x="166" y="679" type="curve" smooth="yes"/>
      <point x="126" y="679"/>
      <point x="61" y="681"/>
      <point x="37" y="683" type="curve"/>
      <point x="37" y="644" type="line"/>
      <point x="54" y="644" type="line" smooth="yes"/>
      <point x="116" y="644"/>
      <point x="123" y="635"/>
      <point x="133" y="607" type="curve" smooth="yes"/>
      <point x="360" y="3" type="line" smooth="yes"/>
      <point x="364" y="-8"/>
      <point x="369" y="-21"/>
      <point x="389" y="-21" type="curve" smooth="yes"/>
      <point x="408" y="-21"/>
      <point x="412" y="-10"/>
      <point x="417" y="2" type="curve" smooth="yes"/>
      <point x="609" y="513" type="line"/>
      <point x="801" y="3" type="line" smooth="yes"/>
      <point x="806" y="-9"/>
      <point x="811" y="-21"/>
      <point x="830" y="-21" type="curve" smooth="yes"/>
      <point x="849" y="-21"/>
      <point x="854" y="-10"/>
      <point x="858" y="2" type="curve" smooth="yes"/>
    </contour>
  </outline>
</glyph>
<glyph name="X" format="2">
  <advance width="896"/>
  <unicode hex="0058"/>
  <outline>
    <contour>
      <point x="482" y="383" type="line"/>
      <point x="642" y="582" type="line" smooth="yes"/>
      <point x="682" y="632"/>
      <point x="739" y="644"/>
      <point x="799" y="644" type="curve"/>
      <point x="799" y="683" type="line"/>
      <point x="760" y="680"/>
      <point x="721" y="679"/>
      <point x="682" y="679" type="curve" smooth="yes"/>
      <point x="633" y="679"/>
      <point x="558" y="682"/>
      <point x="545" y="683" type="curve"/>
      <point x="545" y="644" type="line"/>
      <point x="585" y="643"/>
      <point x="600" y="621"/>
      <point x="600" y="604" type="curve" smooth="yes"/>
      <point x="600" y="593"/>
      <point x="597" y="589"/>
      <point x="588" y="578" type="curve" smooth="yes"/>
      <point x="457" y="414" type="line"/>
      <point x="307" y="604" type="line" smooth="yes"/>
      <point x="301" y="611"/>
      <point x="300" y="613"/>
      <point x="300" y="617" type="curve" smooth="yes"/>
      <point x="300" y="631"/>
      <point x="325" y="644"/>
      <point x="359" y="644" type="curve"/>
      <point x="359" y="683" type="line"/>
      <point x="328" y="682"/>
      <point x="243" y="679"/>
      <point x="201" y="679" type="curve" smooth="yes"/>
      <point x="153" y="679"/>
      <point x="90" y="681"/>
      <point x="63" y="683" type="curve"/>
      <point x="63" y="644" type="line"/>
      <point x="85" y="644" type="line" smooth="yes"/>
      <point x="150" y="644"/>
      <point x="164" y="635"/>
      <point x="183" y="611" type="curve" smooth="yes"/>
      <point x="397" y="340" type="line"/>
      <point x="206" y="103" type="line" smooth="yes"/>
      <point x="184" y="75"/>
      <point x="148" y="40"/>
      <point x="48" y="39" type="curve"/>
      <point x="48" y="0" type="line"/>
      <point x="87" y="3"/>
      <point x="126" y="4"/>
      <point x="165" y="4" type="curve" smooth="yes"/>
      <point x="217" y="4"/>
      <point x="286" y="1"/>
      <point x="302" y="0" type="curve"/>
      <point x="302" y="39" type="line"/>
      <point x="259" y="40"/>
      <point x="246" y="65"/>
      <point x="246" y="79" type="curve" smooth="yes"/>
      <point x="246" y="89"/>
      <point x="249" y="93"/>
      <point x="258" y="104" type="curve" smooth="yes"/>
      <point x="422" y="309" type="line"/>
      <point x="603" y="81" type="line" smooth="yes"/>
      <point x="611" y="70"/>
      <point x="611" y="68"/>
      <point x="611" y="66" type="curve" smooth="yes"/>
      <point x="611" y="53"/>
      <point x="589" y="40"/>
      <point x="552" y="39" type="curve"/>
      <point x="552" y="0" type="line"/>
      <point x="574" y="1"/>
      <point x="668" y="4"/>
      <point x="710" y="4" type="curve" smooth="yes"/>
      <point x="758" y="4"/>
      <point x="821" y="2"/>
      <point x="848" y="0" type="curve"/>
      <point x="848" y="39" type="line"/>
      <point x="826" y="39" type="line" smooth="yes"/>
      <point x="762" y="39"/>
      <point x="747" y="48"/>
      <point x="729" y="71" type="curve" smooth="yes"/>
    </contour>
  </outline>
</glyph>
<glyph name="Z" format="2">
  <advance width="740"/>
  <unicode hex="005A"/>
  <outline>
    <contour>
      <point x="109" y="0" type="curve" smooth="yes"/>
      <point x="649" y="0" type="line"/>
      <point x="668" y="275" type="line"/>
      <point x="631" y="275" type="line"/>
      <point x="621" y="139"/>
      <point x="599" y="42"/>
      <point x="402" y="42" type="curve" smooth="yes"/>
      <point x="202" y="42" type="line"/>
      <point x="652" y="640" type="line" smooth="yes"/>
      <point x="661" y="651"/>
      <point x="661" y="653"/>
      <point x="661" y="662" type="curve" smooth="yes"/>
      <point x="661" y="683"/>
      <point x="651" y="683"/>
      <point x="631" y="683" type="curve" smooth="yes"/>
      <point x="108" y="683" type="line"/>
      <point x="95" y="450" type="line"/>
      <point x="132" y="450" type="line"/>
      <point x="142" y="600"/>
      <point x="217" y="644"/>
      <point x="352" y="644" type="curve" smooth="yes"/>
      <point x="539" y="644" type="line"/>
      <point x="88" y="45" type="line" smooth="yes"/>
      <point x="79" y="34"/>
      <point x="79" y="32"/>
      <point x="79" y="22" type="curve" smooth="yes"/>
      <point x="79" y="0"/>
      <point x="89" y="0"/>
    </contour>
  </outline>
</glyph>
<glyph name="bracketleft" format="2">
  <advance width="351"/>
  <unicode hex="005B"/>
  <outline>
    <contour>
      <point x="312" y="698" type="line"/>
      <point x="312" y="750" type="line"/>
      <point x="149" y="750" type="line"/>
      <point x="149" y="-250" type="line"/>
      <point x="312" y="-250" type="line"/>
      <point x="312" y="-198" type="line"/>
      <point x="201" y="-198" type="line"/>
      <point x="201" y="698" type="line"/>
    </contour>
  </outline>
</glyph>
<glyph name="bracketright" format="2">
  <advance width="351"/>
  <unicode hex="005D"/>
  <outline>
    <contour>
      <point x="202" y="750" type="line"/>
      <point x="39" y="750" type="line"/>
      <point x="39" y="698" type="line"/>
      <point x="150" y="698" type="line"/>
      <point x="150" y="-198" type="line"/>
      <point x="39" y="-198" type="line"/>
      <point x="39" y="-250" type="line"/>
      <point x="202" y="-250" type="line"/>
    </contour>
  </outline>
</glyph>
<glyph name="b" format="2">
  <advance width="675"/>
  <unicode hex="0062"/>
  <outline>
    <contour>
      <point x="216" y="382" type="curve"/>
      <point x="216" y="694" type="line"/>
      <point x="58" y="683" type="line"/>
      <point x="58" y="644" type="line"/>
      <point x="128" y="644"/>
      <point x="137" y="637"/>
      <point x="137" y="588" type="curve" smooth="yes"/>
      <point x="137" y="0" type="line"/>
      <point x="174" y="0" type="line"/>
      <point x="209" y="61" type="line"/>
      <point x="243" y="21"/>
      <point x="294" y="-10"/>
      <point x="363" y="-10" type="curve" smooth="yes"/>
      <point x="502" y="-10"/>
      <point x="621" y="89"/>
      <point x="621" y="216" type="curve" smooth="yes"/>
      <point x="621" y="338"/>
      <point x="513" y="441"/>
      <point x="375" y="441" type="curve" smooth="yes"/>
      <point x="322" y="441"/>
      <point x="265" y="426"/>
    </contour>
    <contour>
      <point x="526" y="216" type="curve" smooth="yes"/>
      <point x="526.0" y="141.74946"/>
      <point x="503.4665089784" y="95.89729224639999"/>
      <point x="474.7706020471271" y="67.59008027610756" type="curve" smooth="yes"/>
      <point x="430.4229134704" y="23.843094897999983"/>
      <point x="371.35708" y="21.99999999999999"/>
      <point x="358" y="22" type="curve" smooth="yes"/>
      <point x="324" y="22"/>
      <point x="275" y="32"/>
      <point x="235" y="84" type="curve" smooth="yes"/>
      <point x="220" y="104"/>
      <point x="220" y="106"/>
      <point x="220" y="125" type="curve" smooth="yes"/>
      <point x="220" y="332" type="line"/>
      <point x="220" y="332" type="line"/>
      <point x="251" y="382"/>
      <point x="311" y="409"/>
      <point x="369" y="409" type="curve" smooth="yes"/>
      <point x="422" y="409"/>
      <point x="463" y="383"/>
      <point x="486" y="356" type="curve" smooth="yes"/>
      <point x="518" y="317"/>
      <point x="526" y="268"/>
    </contour>
  </outline>
</glyph>
<glyph name="d" format="2">
  <advance width="675"/>
  <unicode hex="0064"/>
  <outline>
    <contour>
      <point x="380" y="683" type="line"/>
      <point x="380" y="644" type="line"/>
      <point x="450" y="644"/>
      <point x="459" y="637"/>
      <point x="459" y="588" type="curve" smooth="yes"/>
      <point x="459" y="385" type="line"/>
      <point x="415" y="424"/>
      <point x="366" y="441"/>
      <point x="312" y="441" type="curve" smooth="yes"/>
      <point x="172" y="441"/>
      <point x="54" y="341"/>
      <point x="54" y="215" type="curve" smooth="yes"/>
      <point x="54" y="91"/>
      <point x="165" y="-10"/>
      <point x="300" y="-10" type="curve" smooth="yes"/>
      <point x="360" y="-10"/>
      <point x="412" y="12"/>
      <point x="455" y="52" type="curve"/>
      <point x="455" y="-10" type="line"/>
      <point x="617" y="0" type="line"/>
      <point x="617" y="39" type="line"/>
      <point x="547" y="39"/>
      <point x="538" y="46"/>
      <point x="538" y="95" type="curve" smooth="yes"/>
      <point x="538" y="694" type="line"/>
    </contour>
    <contour>
      <point x="455" y="128" type="line" smooth="yes"/>
      <point x="455" y="109"/>
      <point x="455" y="106"/>
      <point x="439" y="86" type="curve" smooth="yes"/>
      <point x="390" y="26"/>
      <point x="325" y="22"/>
      <point x="306" y="22" type="curve" smooth="yes"/>
      <point x="265" y="22"/>
      <point x="221" y="38"/>
      <point x="187" y="77" type="curve" smooth="yes"/>
      <point x="156" y="116"/>
      <point x="149" y="170"/>
      <point x="149" y="215" type="curve" smooth="yes"/>
      <point x="149" y="397"/>
      <point x="283" y="409"/>
      <point x="318" y="409" type="curve" smooth="yes"/>
      <point x="352" y="409"/>
      <point x="402" y="398"/>
      <point x="441" y="354" type="curve" smooth="yes"/>
      <point x="455" y="337"/>
      <point x="455" y="335"/>
      <point x="455" y="316" type="curve" smooth="yes"/>
    </contour>
  </outline>
</glyph>
<glyph name="e" format="2">
  <advance width="546"/>
  <unicode hex="0065"/>
  <outline>
    <contour>
      <point x="469" y="226" type="line" smooth="yes"/>
      <point x="491" y="226"/>
      <point x="499" y="226"/>
      <point x="499" y="250" type="curve" smooth="yes"/>
      <point x="499" y="327"/>
      <point x="456" y="446"/>
      <point x="290" y="446" type="curve" smooth="yes"/>
      <point x="150" y="446"/>
      <point x="48" y="339"/>
      <point x="48" y="219" type="curve" smooth="yes"/>
      <point x="48" y="93"/>
      <point x="163" y="-10"/>
      <point x="304" y="-10" type="curve" smooth="yes"/>
      <point x="448" y="-10"/>
      <point x="499" y="98"/>
      <point x="499" y="120" type="curve" smooth="yes"/>
      <point x="499" y="125"/>
      <point x="497" y="136"/>
      <point x="480" y="136" type="curve" smooth="yes"/>
      <point x="467" y="136"/>
      <point x="465" y="130"/>
      <point x="461" y="118" type="curve"/>
      <point x="431" y="44"/>
      <point x="356" y="25"/>
      <point x="310" y="25" type="curve" smooth="yes"/>
      <point x="255" y="25"/>
      <point x="208" y="50"/>
      <point x="180" y="86" type="curve" smooth="yes"/>
      <point x="143" y="133"/>
      <point x="143" y="199"/>
      <point x="143" y="226" type="curve"/>
    </contour>
    <contour>
      <point x="145" y="256" type="line"/>
      <point x="156" y="390"/>
      <point x="248" y="414"/>
      <point x="289" y="414" type="curve" smooth="yes"/>
      <point x="418" y="414"/>
      <point x="425" y="285"/>
      <point x="426" y="256" type="curve"/>
    </contour>
  </outline>
</glyph>
<glyph name="f" format="2">
  <advance width="384"/>
  <unicode hex="0066"/>
  <outline>
    <contour>
      <point x="223" y="392" type="line"/>
      <point x="354" y="392" type="line"/>
      <point x="354" y="431" type="line"/>
      <point x="219" y="431" type="line"/>
      <point x="219" y="540" type="line" smooth="yes"/>
      <point x="219" y="633"/>
      <point x="276" y="672"/>
      <point x="318" y="672" type="curve" smooth="yes"/>
      <point x="331" y="672"/>
      <point x="342" y="669"/>
      <point x="346" y="668" type="curve"/>
      <point x="339" y="663"/>
      <point x="328" y="655"/>
      <point x="328" y="630" type="curve" smooth="yes"/>
      <point x="328" y="604"/>
      <point x="346" y="583"/>
      <point x="375" y="583" type="curve" smooth="yes"/>
      <point x="404" y="583"/>
      <point x="422" y="604"/>
      <point x="422" y="630" type="curve" smooth="yes"/>
      <point x="422" y="674"/>
      <point x="379" y="704"/>
      <point x="319" y="704" type="curve" smooth="yes"/>
      <point x="238" y="704"/>
      <point x="144" y="648"/>
      <point x="144" y="541" type="curve" smooth="yes"/>
      <point x="144" y="431" type="line"/>
      <point x="52" y="431" type="line"/>
      <point x="52" y="392" type="line"/>
      <point x="144" y="392" type="line"/>
      <point x="144" y="82" type="line" smooth="yes"/>
      <point x="144" y="39"/>
      <point x="134" y="39"/>
      <point x="65" y="39" type="curve"/>
      <point x="65" y="0" type="line"/>
      <point x="90" y="2"/>
      <point x="164" y="4"/>
      <point x="186" y="4" type="curve" smooth="yes"/>
      <point x="238" y="4"/>
      <point x="307" y="1"/>
      <point x="321" y="0" type="curve"/>
      <point x="321" y="39" type="line"/>
      <point x="299" y="39" type="line" smooth="yes"/>
      <point x="224" y="39"/>
      <point x="223" y="49"/>
      <point x="223" y="83" type="curve" smooth="yes"/>
    </contour>
  </outline>
</glyph>
<glyph name="g" format="2">
  <advance width="611"/>
  <unicode hex="0067"/>
  <outline>
    <contour>
      <point x="158" y="176" type="curve"/>
      <point x="182" y="162"/>
      <point x="222" y="146"/>
      <point x="272" y="146" type="curve" smooth="yes"/>
      <point x="383" y="146"/>
      <point x="460" y="217"/>
      <point x="460" y="293" type="curve" smooth="yes"/>
      <point x="460" y="349"/>
      <point x="419" y="386"/>
      <point x="417" y="388" type="curve"/>
      <point x="462" y="418"/>
      <point x="505" y="420"/>
      <point x="520" y="420" type="curve"/>
      <point x="517" y="416"/>
      <point x="513" y="412"/>
      <point x="513" y="398" type="curve" smooth="yes"/>
      <point x="513" y="380"/>
      <point x="526" y="365"/>
      <point x="546" y="365" type="curve" smooth="yes"/>
      <point x="568" y="365"/>
      <point x="580" y="381"/>
      <point x="580" y="399" type="curve" smooth="yes"/>
      <point x="580" y="421"/>
      <point x="561" y="452"/>
      <point x="517" y="452" type="curve" smooth="yes"/>
      <point x="475" y="452"/>
      <point x="429" y="435"/>
      <point x="394" y="406" type="curve"/>
      <point x="361" y="429"/>
      <point x="316" y="441"/>
      <point x="273" y="441" type="curve" smooth="yes"/>
      <point x="165" y="441"/>
      <point x="85" y="372"/>
      <point x="85" y="293" type="curve" smooth="yes"/>
      <point x="85" y="262"/>
      <point x="98" y="226"/>
      <point x="134" y="193" type="curve"/>
      <point x="112" y="165"/>
      <point x="105" y="137"/>
      <point x="105" y="113" type="curve" smooth="yes"/>
      <point x="105" y="58"/>
      <point x="140" y="28"/>
      <point x="146" y="23" type="curve"/>
      <point x="107" y="12"/>
      <point x="46" y="-20"/>
      <point x="46" y="-76" type="curve" smooth="yes"/>
      <point x="46" y="-153"/>
      <point x="167" y="-205"/>
      <point x="305" y="-205" type="curve" smooth="yes"/>
      <point x="433" y="-205"/>
      <point x="564" y="-159"/>
      <point x="564" y="-74" type="curve" smooth="yes"/>
      <point x="564" y="-49"/>
      <point x="556" y="15"/>
      <point x="476" y="48" type="curve" smooth="yes"/>
      <point x="419" y="72"/>
      <point x="362" y="72"/>
      <point x="268" y="72" type="curve" smooth="yes"/>
      <point x="244" y="72"/>
      <point x="205" y="72"/>
      <point x="197" y="74" type="curve"/>
      <point x="171" y="78"/>
      <point x="146" y="103"/>
      <point x="146" y="138" type="curve" smooth="yes"/>
      <point x="146" y="159"/>
      <point x="156" y="173"/>
    </contour>
    <contour>
      <point x="273" y="179" type="curve" smooth="yes"/>
      <point x="190" y="179"/>
      <point x="169" y="240"/>
      <point x="169" y="293" type="curve" smooth="yes"/>
      <point x="169" y="312"/>
      <point x="169" y="408"/>
      <point x="272" y="408" type="curve" smooth="yes"/>
      <point x="361" y="408"/>
      <point x="376" y="338"/>
      <point x="376" y="294" type="curve" smooth="yes"/>
      <point x="376" y="275"/>
      <point x="376" y="179"/>
    </contour>
    <contour>
      <point x="329" y="1" type="line" smooth="yes"/>
      <point x="360" y="1"/>
      <point x="499" y="-1"/>
      <point x="499" y="-76" type="curve" smooth="yes"/>
      <point x="499" y="-125"/>
      <point x="417" y="-172"/>
      <point x="305" y="-172" type="curve" smooth="yes"/>
      <point x="197" y="-172"/>
      <point x="111" y="-127"/>
      <point x="111" y="-75" type="curve" smooth="yes"/>
      <point x="111" y="-50"/>
      <point x="134" y="1"/>
      <point x="218" y="1" type="curve" smooth="yes"/>
    </contour>
  </outline>
</glyph>
<glyph name="h" format="2">
  <advance width="675"/>
  <unicode hex="0068"/>
  <outline>
    <contour>
      <point x="547" y="302" type="line" smooth="yes"/>
      <point x="547" y="400"/>
      <point x="491" y="441"/>
      <point x="390" y="441" type="curve" smooth="yes"/>
      <point x="284" y="441"/>
      <point x="235" y="374"/>
      <point x="221" y="352" type="curve"/>
      <point x="221" y="694" type="line"/>
      <point x="63" y="683" type="line"/>
      <point x="63" y="644" type="line"/>
      <point x="133" y="644"/>
      <point x="142" y="637"/>
      <point x="142" y="588" type="curve" smooth="yes"/>
      <point x="142" y="82" type="line" smooth="yes"/>
      <point x="142" y="39"/>
      <point x="132" y="39"/>
      <point x="63" y="39" type="curve"/>
      <point x="63" y="0" type="line"/>
      <point x="70" y="1"/>
      <point x="138" y="4"/>
      <point x="183" y="4" type="curve" smooth="yes"/>
      <point x="228" y="4"/>
      <point x="294" y="1"/>
      <point x="304" y="0" type="curve"/>
      <point x="304" y="39" type="line"/>
      <point x="235" y="39"/>
      <point x="225" y="39"/>
      <point x="225" y="82" type="curve" smooth="yes"/>
      <point x="225" y="258" type="line" smooth="yes"/>
      <point x="225" y="368"/>
      <point x="319" y="409"/>
      <point x="381" y="409" type="curve" smooth="yes"/>
      <point x="448" y="409"/>
      <point x="464" y="367"/>
      <point x="464" y="305" type="curve" smooth="yes"/>
      <point x="464" y="82" type="line" smooth="yes"/>
      <point x="464" y="39"/>
      <point x="454" y="39"/>
      <point x="385" y="39" type="curve"/>
      <point x="385" y="0" type="line"/>
      <point x="392" y="1"/>
      <point x="460" y="4"/>
      <point x="505" y="4" type="curve" smooth="yes"/>
      <point x="550" y="4"/>
      <point x="616" y="1"/>
      <point x="626" y="0" type="curve"/>
      <point x="626" y="39" type="line"/>
      <point x="557" y="39"/>
      <point x="547" y="39"/>
      <point x="547" y="82" type="curve" smooth="yes"/>
    </contour>
  </outline>
</glyph>
<glyph name="j" format="2">
  <advance width="384"/>
  <unicode hex="006A"/>
  <outline>
    <contour>
      <point x="183" y="335" type="curve" smooth="yes"/>
      <point x="183" y="-45" type="line" smooth="yes"/>
      <point x="183" y="-92"/>
      <point x="170" y="-172"/>
      <point x="106" y="-172" type="curve" smooth="yes"/>
      <point x="91" y="-172"/>
      <point x="69" y="-169"/>
      <point x="55" y="-164" type="curve"/>
      <point x="64" y="-159"/>
      <point x="77" y="-151"/>
      <point x="77" y="-122" type="curve" smooth="yes"/>
      <point x="77" y="-94"/>
      <point x="56" y="-74"/>
      <point x="29" y="-74" type="curve" smooth="yes"/>
      <point x="0" y="-74"/>
      <point x="-20" y="-94"/>
      <point x="-20" y="-123" type="curve" smooth="yes"/>
      <point x="-20" y="-180"/>
      <point x="44" y="-204"/>
      <point x="107" y="-204" type="curve" smooth="yes"/>
      <point x="191" y="-204"/>
      <point x="262" y="-140"/>
      <point x="262" y="-44" type="curve" smooth="yes"/>
      <point x="262" y="441" type="line"/>
      <point x="96" y="430" type="line"/>
      <point x="96" y="391" type="line"/>
      <point x="173" y="391"/>
      <point x="183" y="384"/>
    </contour>
    <contour>
      <point x="262" y="616" type="curve" smooth="yes"/>
      <point x="262" y="648"/>
      <point x="236" y="676"/>
      <point x="202" y="676" type="curve" smooth="yes"/>
      <point x="169" y="676"/>
      <point x="142" y="648"/>
      <point x="142" y="616" type="curve" smooth="yes"/>
      <point x="142" y="584"/>
      <point x="168" y="556"/>
      <point x="202" y="556" type="curve" smooth="yes"/>
      <point x="235" y="556"/>
      <point x="262" y="584"/>
    </contour>
  </outline>
</glyph>
<glyph name="m" format="2">
  <advance width="1000"/>
  <unicode hex="006D"/>
  <outline>
    <contour>
      <point x="871" y="302" type="line" smooth="yes"/>
      <point x="871" y="404"/>
      <point x="811" y="441"/>
      <point x="713" y="441" type="curve" smooth="yes"/>
      <point x="620" y="441"/>
      <point x="565" y="388"/>
      <point x="543" y="350" type="curve"/>
      <point x="520" y="441"/>
      <point x="418" y="441"/>
      <point x="390" y="441" type="curve" smooth="yes"/>
      <point x="299" y="441"/>
      <point x="243" y="391"/>
      <point x="219" y="349" type="curve"/>
      <point x="218" y="349" type="line"/>
      <point x="218" y="441" type="line"/>
      <point x="63" y="430" type="line"/>
      <point x="63" y="391" type="line"/>
      <point x="133" y="391"/>
      <point x="142" y="384"/>
      <point x="142" y="335" type="curve" smooth="yes"/>
      <point x="142" y="82" type="line" smooth="yes"/>
      <point x="142" y="39"/>
      <point x="132" y="39"/>
      <point x="63" y="39" type="curve"/>
      <point x="63" y="0" type="line"/>
      <point x="70" y="1"/>
      <point x="138" y="4"/>
      <point x="183" y="4" type="curve" smooth="yes"/>
      <point x="228" y="4"/>
      <point x="294" y="1"/>
      <point x="304" y="0" type="curve"/>
      <point x="304" y="39" type="line"/>
      <point x="235" y="39"/>
      <point x="225" y="39"/>
      <point x="225" y="82" type="curve" smooth="yes"/>
      <point x="225" y="258" type="line" smooth="yes"/>
      <point x="225" y="368"/>
      <point x="320" y="409"/>
      <point x="381" y="409" type="curve" smooth="yes"/>
      <point x="450" y="409"/>
      <point x="465" y="366"/>
      <point x="465" y="304" type="curve" smooth="yes"/>
      <point x="465" y="82" type="line" smooth="yes"/>
      <point x="465" y="39"/>
      <point x="455" y="39"/>
      <point x="386" y="39" type="curve"/>
      <point x="386" y="0" type="line"/>
      <point x="393" y="1"/>
      <point x="461" y="4"/>
      <point x="506" y="4" type="curve" smooth="yes"/>
      <point x="551" y="4"/>
      <point x="617" y="1"/>
      <point x="627" y="0" type="curve"/>
      <point x="627" y="39" type="line"/>
      <point x="558" y="39"/>
      <point x="548" y="39"/>
      <point x="548" y="82" type="curve" smooth="yes"/>
      <point x="548" y="258" type="line" smooth="yes"/>
      <point x="548" y="368"/>
      <point x="643" y="409"/>
      <point x="704" y="409" type="curve" smooth="yes"/>
      <point x="773" y="409"/>
      <point x="788" y="366"/>
      <point x="788" y="304" type="curve" smooth="yes"/>
      <point x="788" y="82" type="line" smooth="yes"/>
      <point x="788" y="39"/>
      <point x="778" y="39"/>
      <point x="709" y="39" type="curve"/>
      <point x="709" y="0" type="line"/>
      <point x="716" y="1"/>
      <point x="784" y="4"/>
      <point x="829" y="4" type="curve" smooth="yes"/>
      <point x="874" y="4"/>
      <point x="940" y="1"/>
      <point x="950" y="0" type="curve"/>
      <point x="950" y="39" type="line"/>
      <point x="881" y="39"/>
      <point x="871" y="39"/>
      <point x="871" y="82" type="curve" smooth="yes"/>
    </contour>
  </outline>
</glyph>
<glyph name="o" format="2">
  <advance width="611"/>
  <unicode hex="006F"/>
  <outline>
    <contour>
      <point x="562" y="213" type="curve" smooth="yes"/>
      <point x="562" y="338"/>
      <point x="450" y="446"/>
      <point x="305" y="446" type="curve" smooth="yes"/>
      <point x="159" y="446"/>
      <point x="48" y="338"/>
      <point x="48" y="213" type="curve" smooth="yes"/>
      <point x="48" y="91"/>
      <point x="161" y="-10"/>
      <point x="305" y="-10" type="curve" smooth="yes"/>
      <point x="449" y="-10"/>
      <point x="562" y="91"/>
    </contour>
    <contour>
      <point x="305" y="25" type="curve" smooth="yes"/>
      <point x="143" y="25"/>
      <point x="143" y="174"/>
      <point x="143" y="222" type="curve" smooth="yes"/>
      <point x="143" y="253"/>
      <point x="143" y="322"/>
      <point x="180" y="363" type="curve" smooth="yes"/>
      <point x="214" y="399"/>
      <point x="257" y="414"/>
      <point x="305" y="414" type="curve" smooth="yes"/>
      <point x="353" y="414"/>
      <point x="398" y="399"/>
      <point x="431" y="362" type="curve" smooth="yes"/>
      <point x="467" y="321"/>
      <point x="467" y="254"/>
      <point x="467" y="222" type="curve" smooth="yes"/>
      <point x="467" y="174"/>
      <point x="467" y="25"/>
    </contour>
  </outline>
</glyph>
<glyph name="q" format="2">
  <advance width="643"/>
  <unicode hex="0071"/>
  <outline>
    <contour>
      <point x="455" y="-112" type="line" smooth="yes"/>
      <point x="455" y="-155"/>
      <point x="445" y="-155"/>
      <point x="376" y="-155" type="curve"/>
      <point x="376" y="-155" type="line"/>
      <point x="376" y="-194" type="line"/>
      <point x="383" y="-193"/>
      <point x="451" y="-190"/>
      <point x="496" y="-190" type="curve" smooth="yes"/>
      <point x="541" y="-190"/>
      <point x="607" y="-193"/>
      <point x="617" y="-194" type="curve"/>
      <point x="617" y="-155" type="line"/>
      <point x="617" y="-155" type="line"/>
      <point x="548" y="-155"/>
      <point x="538" y="-155"/>
      <point x="538" y="-112" type="curve" smooth="yes"/>
      <point x="538" y="441" type="line"/>
      <point x="505" y="441" type="line"/>
      <point x="468" y="355" type="line"/>
      <point x="449" y="384"/>
      <point x="399" y="441"/>
      <point x="309" y="441" type="curve" smooth="yes"/>
      <point x="174" y="441"/>
      <point x="54" y="344"/>
      <point x="54" y="215" type="curve" smooth="yes"/>
      <point x="54" y="92"/>
      <point x="165" y="-10"/>
      <point x="300" y="-10" type="curve" smooth="yes"/>
      <point x="372" y="-10"/>
      <point x="423" y="24"/>
      <point x="455" y="59" type="curve"/>
    </contour>
    <contour>
      <point x="149" y="215" type="curve" smooth="yes"/>
      <point x="149" y="324"/>
      <point x="228" y="406"/>
      <point x="318" y="406" type="curve" smooth="yes"/>
      <point x="402" y="406"/>
      <point x="459" y="328"/>
      <point x="459" y="269" type="curve" smooth="yes"/>
      <point x="459" y="149" type="line" smooth="yes"/>
      <point x="459" y="114"/>
      <point x="436" y="85"/>
      <point x="409" y="62" type="curve" smooth="yes"/>
      <point x="367" y="24"/>
      <point x="321" y="22"/>
      <point x="306" y="22" type="curve" smooth="yes"/>
      <point x="219" y="22"/>
      <point x="149" y="108"/>
    </contour>
  </outline>
</glyph>
<glyph name="r" format="2">
  <advance width="481"/>
  <unicode hex="0072"/>
  <outline>
    <contour>
      <point x="216" y="224" type="line" smooth="yes"/>
      <point x="216" y="317"/>
      <point x="264" y="407"/>
      <point x="353" y="409" type="curve"/>
      <point x="344" y="400"/>
      <point x="340" y="388"/>
      <point x="340" y="375" type="curve" smooth="yes"/>
      <point x="340" y="348"/>
      <point x="360" y="328"/>
      <point x="387" y="328" type="curve" smooth="yes"/>
      <point x="414" y="328"/>
      <point x="434" y="348"/>
      <point x="434" y="375" type="curve" smooth="yes"/>
      <point x="434" y="415"/>
      <point x="396" y="441"/>
      <point x="352" y="441" type="curve" smooth="yes"/>
      <point x="292" y="441"/>
      <point x="241" y="405"/>
      <point x="210" y="338" type="curve"/>
      <point x="209" y="338" type="line"/>
      <point x="209" y="441" type="line"/>
      <point x="58" y="430" type="line"/>
      <point x="58" y="391" type="line"/>
      <point x="128" y="391"/>
      <point x="137" y="384"/>
      <point x="137" y="335" type="curve" smooth="yes"/>
      <point x="137" y="82" type="line" smooth="yes"/>
      <point x="137" y="39"/>
      <point x="127" y="39"/>
      <point x="58" y="39" type="curve"/>
      <point x="58" y="0" type="line"/>
      <point x="83" y="2"/>
      <point x="157" y="4"/>
      <point x="179" y="4" type="curve" smooth="yes"/>
      <point x="231" y="4"/>
      <point x="300" y="1"/>
      <point x="314" y="0" type="curve"/>
      <point x="314" y="39" type="line"/>
      <point x="292" y="39" type="line" smooth="yes"/>
      <point x="217" y="39"/>
      <point x="216" y="49"/>
      <point x="216" y="83" type="curve" smooth="yes"/>
    </contour>
  </outline>
</glyph>
<glyph name="s" format="2">
  <advance width="487"/>
  <unicode hex="0073"/>
  <outline>
    <contour>
      <point x="405" y="418" type="line" smooth="yes"/>
      <point x="405" y="435"/>
      <point x="405" y="446"/>
      <point x="389" y="446" type="curve" smooth="yes"/>
      <point x="384" y="446"/>
      <point x="382" y="446"/>
      <point x="367" y="434" type="curve"/>
      <point x="365" y="432"/>
      <point x="364" y="431"/>
      <point x="349" y="419" type="curve"/>
      <point x="311" y="445"/>
      <point x="260" y="446"/>
      <point x="240" y="446" type="curve" smooth="yes"/>
      <point x="83" y="446"/>
      <point x="53" y="367"/>
      <point x="53" y="322" type="curve" smooth="yes"/>
      <point x="53" y="224"/>
      <point x="171" y="205"/>
      <point x="247" y="193" type="curve" smooth="yes"/>
      <point x="292" y="186"/>
      <point x="379" y="172"/>
      <point x="379" y="106" type="curve" smooth="yes"/>
      <point x="379" y="67"/>
      <point x="349" y="22"/>
      <point x="247" y="22" type="curve" smooth="yes"/>
      <point x="151" y="22"/>
      <point x="111" y="78"/>
      <point x="91" y="153" type="curve"/>
      <point x="88" y="162"/>
      <point x="86" y="168"/>
      <point x="72" y="168" type="curve" smooth="yes"/>
      <point x="53" y="168"/>
      <point x="53" y="159"/>
      <point x="53" y="139" type="curve" smooth="yes"/>
      <point x="53" y="18" type="line" smooth="yes"/>
      <point x="53" y="1"/>
      <point x="53" y="-10"/>
      <point x="69" y="-10" type="curve" smooth="yes"/>
      <point x="75" y="-10"/>
      <point x="76" y="-9"/>
      <point x="95" y="9" type="curve" smooth="yes"/>
      <point x="118" y="33" type="line"/>
      <point x="167" y="-10"/>
      <point x="227" y="-10"/>
      <point x="247" y="-10" type="curve" smooth="yes"/>
      <point x="395" y="-10"/>
      <point x="434" y="70"/>
      <point x="434" y="129" type="curve" smooth="yes"/>
      <point x="434" y="169"/>
      <point x="414" y="199"/>
      <point x="392" y="218" type="curve" smooth="yes"/>
      <point x="350" y="255"/>
      <point x="310" y="262"/>
      <point x="250" y="272" type="curve" smooth="yes"/>
      <point x="175" y="284"/>
      <point x="108" y="296"/>
      <point x="108" y="347" type="curve" smooth="yes"/>
      <point x="108" y="376"/>
      <point x="135" y="417"/>
      <point x="239" y="417" type="curve" smooth="yes"/>
      <point x="309" y="417"/>
      <point x="362" y="391"/>
      <point x="368" y="320" type="curve" smooth="yes"/>
      <point x="369" y="307"/>
      <point x="370" y="299"/>
      <point x="386" y="299" type="curve" smooth="yes"/>
      <point x="405" y="299"/>
      <point x="405" y="308"/>
      <point x="405" y="327" type="curve" smooth="yes"/>
    </contour>
  </outline>
</glyph>
<glyph name="u" format="2">
  <advance width="675"/>
  <unicode hex="0075"/>
  <outline>
    <contour>
      <point x="142" y="167" type="line" smooth="yes"/>
      <point x="142" y="99"/>
      <point x="142" y="55"/>
      <point x="187" y="22" type="curve" smooth="yes"/>
      <point x="225" y="-6"/>
      <point x="275" y="-10"/>
      <point x="317" y="-10" type="curve" smooth="yes"/>
      <point x="380" y="-10"/>
      <point x="433" y="15"/>
      <point x="468" y="72" type="curve"/>
      <point x="468" y="72" type="line"/>
      <point x="468" y="-10" type="line"/>
      <point x="626" y="0" type="line"/>
      <point x="626" y="39" type="line"/>
      <point x="556" y="39"/>
      <point x="547" y="46"/>
      <point x="547" y="95" type="curve" smooth="yes"/>
      <point x="547" y="441" type="line"/>
      <point x="385" y="430" type="line"/>
      <point x="385" y="391" type="line"/>
      <point x="455" y="391"/>
      <point x="464" y="384"/>
      <point x="464" y="335" type="curve" smooth="yes"/>
      <point x="464" y="168" type="line" smooth="yes"/>
      <point x="464" y="77"/>
      <point x="401" y="22"/>
      <point x="324" y="22" type="curve" smooth="yes"/>
      <point x="229" y="22"/>
      <point x="225" y="64"/>
      <point x="225" y="113" type="curve" smooth="yes"/>
      <point x="225" y="441" type="line"/>
      <point x="63" y="430" type="line"/>
      <point x="63" y="391" type="line"/>
      <point x="142" y="391"/>
      <point x="142" y="382"/>
      <point x="142" y="323" type="curve" smooth="yes"/>
    </contour>
  </outline>
</glyph>
<glyph name="w" format="2">
  <advance width="870"/>
  <unicode hex="0077"/>
  <outline>
    <contour>
      <point x="741" y="329" type="line" smooth="yes"/>
      <point x="767" y="391"/>
      <point x="814" y="392"/>
      <point x="831" y="392" type="curve"/>
      <point x="831" y="431" type="line"/>
      <point x="829" y="431"/>
      <point x="788" y="427"/>
      <point x="753" y="427" type="curve" smooth="yes"/>
      <point x="726" y="427"/>
      <point x="665" y="430"/>
      <point x="652" y="431" type="curve"/>
      <point x="652" y="392" type="line"/>
      <point x="693" y="391"/>
      <point x="706" y="367"/>
      <point x="706" y="349" type="curve" smooth="yes"/>
      <point x="706" y="341"/>
      <point x="705" y="339"/>
      <point x="700" y="327" type="curve" smooth="yes"/>
      <point x="598" y="79" type="line"/>
      <point x="484" y="354" type="line"/>
      <point x="483" y="357"/>
      <point x="481" y="364"/>
      <point x="481" y="368" type="curve" smooth="yes"/>
      <point x="481" y="392"/>
      <point x="518" y="392"/>
      <point x="536" y="392" type="curve"/>
      <point x="536" y="431" type="line"/>
      <point x="514" y="429"/>
      <point x="443" y="427"/>
      <point x="425" y="427" type="curve" smooth="yes"/>
      <point x="391" y="427"/>
      <point x="348" y="430"/>
      <point x="331" y="431" type="curve"/>
      <point x="331" y="392" type="line"/>
      <point x="359.62" y="392.0"/>
      <point x="376.7231" y="392.0"/>
      <point x="388.859888" y="385.00278099999997" type="curve" smooth="yes"/>
      <point x="399.6227" y="378.79769999999996"/>
      <point x="406.48" y="367.09"/>
      <point x="414" y="345" type="curve"/>
      <point x="311" y="94" type="line"/>
      <point x="205" y="349" type="line" smooth="yes"/>
      <point x="200" y="360"/>
      <point x="199" y="364"/>
      <point x="199" y="368" type="curve" smooth="yes"/>
      <point x="199" y="392"/>
      <point x="237" y="392"/>
      <point x="255" y="392" type="curve"/>
      <point x="255" y="431" type="line"/>
      <point x="234" y="429"/>
      <point x="164" y="427"/>
      <point x="138" y="427" type="curve" smooth="yes"/>
      <point x="130" y="427"/>
      <point x="65" y="428"/>
      <point x="38" y="431" type="curve"/>
      <point x="38" y="392" type="line"/>
      <point x="97" y="392"/>
      <point x="103" y="387"/>
      <point x="115" y="358" type="curve" smooth="yes"/>
      <point x="258" y="15" type="line" smooth="yes"/>
      <point x="265" y="-1"/>
      <point x="268" y="-10"/>
      <point x="288" y="-10" type="curve" smooth="yes"/>
      <point x="301" y="-10"/>
      <point x="310" y="-6"/>
      <point x="318" y="13" type="curve" smooth="yes"/>
      <point x="434" y="296" type="line"/>
      <point x="551" y="13" type="line" smooth="yes"/>
      <point x="559" y="-7"/>
      <point x="569" y="-10"/>
      <point x="581" y="-10" type="curve" smooth="yes"/>
      <point x="601" y="-10"/>
      <point x="604" y="-1"/>
      <point x="611" y="15" type="curve" smooth="yes"/>
    </contour>
  </outline>
</glyph>
<glyph name="x" format="2">
  <advance width="643"/>
  <unicode hex="0078"/>
  <outline>
    <contour>
      <point x="35" y="0" type="line"/>
      <point x="48" y="1"/>
      <point x="92" y="4"/>
      <point x="124" y="4" type="curve" smooth="yes"/>
      <point x="138" y="4"/>
      <point x="206" y="2"/>
      <point x="228" y="0" type="curve"/>
      <point x="228" y="39" type="line"/>
      <point x="215" y="40"/>
      <point x="208" y="48"/>
      <point x="208" y="61" type="curve" smooth="yes"/>
      <point x="208" y="75"/>
      <point x="215" y="86"/>
      <point x="225" y="97" type="curve" smooth="yes"/>
      <point x="307" y="184" type="line"/>
      <point x="396" y="88" type="line" smooth="yes"/>
      <point x="416" y="66"/>
      <point x="416" y="64"/>
      <point x="416" y="59" type="curve" smooth="yes"/>
      <point x="416" y="49"/>
      <point x="407" y="39"/>
      <point x="389" y="39" type="curve"/>
      <point x="389" y="0" type="line"/>
      <point x="422" y="2"/>
      <point x="498" y="4"/>
      <point x="506" y="4" type="curve" smooth="yes"/>
      <point x="543" y="4"/>
      <point x="595" y="1"/>
      <point x="608" y="0" type="curve"/>
      <point x="608" y="39" type="line"/>
      <point x="558" y="39"/>
      <point x="533" y="39"/>
      <point x="506" y="69" type="curve" smooth="yes"/>
      <point x="355" y="234" type="line"/>
      <point x="454" y="338" type="line" smooth="yes"/>
      <point x="506" y="388"/>
      <point x="561" y="392"/>
      <point x="588" y="392" type="curve"/>
      <point x="588" y="431" type="line"/>
      <point x="575" y="430"/>
      <point x="531" y="427"/>
      <point x="499" y="427" type="curve" smooth="yes"/>
      <point x="463" y="427"/>
      <point x="402" y="430"/>
      <point x="396" y="431" type="curve"/>
      <point x="396" y="392" type="line"/>
      <point x="408" y="390"/>
      <point x="416" y="382"/>
      <point x="416" y="370" type="curve" smooth="yes"/>
      <point x="416" y="353"/>
      <point x="408" y="345"/>
      <point x="379" y="312" type="curve" smooth="yes"/>
      <point x="330" y="261" type="line"/>
      <point x="244" y="354" type="line" smooth="yes"/>
      <point x="234" y="364"/>
      <point x="233" y="366"/>
      <point x="233" y="372" type="curve" smooth="yes"/>
      <point x="233" y="387"/>
      <point x="249" y="392"/>
      <point x="260" y="392" type="curve"/>
      <point x="260" y="431" type="line"/>
      <point x="236" y="429"/>
      <point x="167" y="427"/>
      <point x="143" y="427" type="curve" smooth="yes"/>
      <point x="124" y="427"/>
      <point x="63" y="429"/>
      <point x="41" y="431" type="curve"/>
      <point x="41" y="392" type="line"/>
      <point x="98" y="392"/>
      <point x="117" y="390"/>
      <point x="142" y="363" type="curve"/>
      <point x="282" y="211" type="line"/>
      <point x="180" y="105" type="line" smooth="yes"/>
      <point x="154" y="78"/>
      <point x="117" y="40"/>
      <point x="35" y="39" type="curve"/>
    </contour>
  </outline>
</glyph>
<glyph name="y" format="2">
  <advance width="643"/>
  <unicode hex="0079"/>
  <outline>
    <contour>
      <point x="504" y="330" type="line" smooth="yes"/>
      <point x="533" y="390"/>
      <point x="582" y="391"/>
      <point x="603" y="392" type="curve"/>
      <point x="603" y="431" type="line"/>
      <point x="596" y="430"/>
      <point x="554" y="427"/>
      <point x="523" y="427" type="curve" smooth="yes"/>
      <point x="497" y="427"/>
      <point x="440" y="430"/>
      <point x="428" y="431" type="curve"/>
      <point x="428" y="392" type="line"/>
      <point x="464" y="390"/>
      <point x="470" y="368"/>
      <point x="470" y="355" type="curve" smooth="yes"/>
      <point x="470" y="343"/>
      <point x="466" y="335"/>
      <point x="462" y="327" type="curve" smooth="yes"/>
      <point x="345" y="90" type="line"/>
      <point x="216" y="352" type="line"/>
      <point x="213" y="357"/>
      <point x="210" y="363"/>
      <point x="210" y="370" type="curve" smooth="yes"/>
      <point x="210" y="392"/>
      <point x="245" y="392"/>
      <point x="262" y="392" type="curve"/>
      <point x="262" y="431" type="line"/>
      <point x="240" y="429"/>
      <point x="169" y="427"/>
      <point x="144" y="427" type="curve" smooth="yes"/>
      <point x="128" y="427"/>
      <point x="65" y="429"/>
      <point x="40" y="431" type="curve"/>
      <point x="40" y="392" type="line"/>
      <point x="101" y="392"/>
      <point x="110" y="388"/>
      <point x="126" y="356" type="curve" smooth="yes"/>
      <point x="301" y="0" type="line"/>
      <point x="295" y="-12"/>
      <point x="281" y="-41"/>
      <point x="275" y="-52" type="curve" smooth="yes"/>
      <point x="249" y="-104"/>
      <point x="215" y="-172"/>
      <point x="144" y="-172" type="curve" smooth="yes"/>
      <point x="140" y="-172"/>
      <point x="119" y="-172"/>
      <point x="101" y="-161" type="curve"/>
      <point x="112" y="-156"/>
      <point x="127" y="-144"/>
      <point x="127" y="-120" type="curve" smooth="yes"/>
      <point x="127" y="-93"/>
      <point x="108" y="-75"/>
      <point x="82" y="-75" type="curve" smooth="yes"/>
      <point x="58" y="-75"/>
      <point x="37" y="-91"/>
      <point x="37" y="-121" type="curve" smooth="yes"/>
      <point x="37" y="-169"/>
      <point x="86" y="-204"/>
      <point x="143" y="-204" type="curve" smooth="yes"/>
      <point x="232" y="-204"/>
      <point x="283" y="-119"/>
      <point x="298" y="-89" type="curve" smooth="yes"/>
    </contour>
  </outline>
</glyph>
<glyph name="dieresis" format="2">
  <advance width="611"/>
  <unicode hex="00A8"/>
  <outline>
    <contour>
      <point x="249" y="619" type="curve" smooth="yes"/>
      <point x="249" y="648"/>
      <point x="226" y="676"/>
      <point x="192" y="676" type="curve" smooth="yes"/>
      <point x="163" y="676"/>
      <point x="136" y="653"/>
      <point x="136" y="620" type="curve" smooth="yes"/>
      <point x="136" y="583"/>
      <point x="166" y="563"/>
      <point x="192" y="563" type="curve" smooth="yes"/>
      <point x="227" y="563"/>
      <point x="249" y="593"/>
    </contour>
    <contour>
      <point x="474" y="619" type="curve" smooth="yes"/>
      <point x="474" y="656"/>
      <point x="444" y="676"/>
      <point x="418" y="676" type="curve" smooth="yes"/>
      <point x="383" y="676"/>
      <point x="361" y="646"/>
      <point x="361" y="620" type="curve" smooth="yes"/>
      <point x="361" y="591"/>
      <point x="384" y="563"/>
      <point x="418" y="563" type="curve" smooth="yes"/>
      <point x="447" y="563"/>
      <point x="474" y="586"/>
    </contour>
  </outline>
</glyph>
<glyph name="macron" format="2">
  <advance width="611"/>
  <unicode hex="00AF"/>
  <outline>
    <contour>
      <point x="515" y="558" type="line"/>
      <point x="515" y="600" type="line"/>
      <point x="95" y="600" type="line"/>
      <point x="95" y="558" type="line"/>
    </contour>
  </outline>
</glyph>
<glyph name="acute" format="2">
  <advance width="611"/>
  <unicode hex="00B4"/>
  <outline>
    <contour>
      <point x="446" y="618" type="line" smooth="yes"/>
      <point x="458" y="626"/>
      <point x="471" y="635"/>
      <point x="471" y="654" type="curve" smooth="yes"/>
      <point x="471" y="674"/>
      <point x="453" y="698"/>
      <point x="428" y="698" type="curve" smooth="yes"/>
      <point x="410" y="698"/>
      <point x="398" y="686"/>
      <point x="398" y="685" type="curve"/>
      <point x="253" y="533" type="line"/>
      <point x="277" y="504" type="line"/>
    </contour>
  </outline>
</glyph>
<glyph name="cedilla" format="2">
  <advance width="546"/>
  <unicode hex="00B8"/>
  <outline>
    <contour>
      <point x="346" y="-21" type="line"/>
      <point x="263" y="-21" type="line"/>
      <point x="263" y="-70" type="line"/>
      <point x="326" y="-70"/>
      <point x="361" y="-89"/>
      <point x="361" y="-122" type="curve" smooth="yes"/>
      <point x="361" y="-175"/>
      <point x="243" y="-175"/>
      <point x="205" y="-175" type="curve" smooth="yes"/>
      <point x="166" y="-175" type="line"/>
      <point x="166" y="-207" type="line"/>
      <point x="218" y="-207" type="line" smooth="yes"/>
      <point x="408" y="-207"/>
      <point x="444" y="-165"/>
      <point x="444" y="-122" type="curve" smooth="yes"/>
      <point x="444" y="-69"/>
      <point x="391" y="-50"/>
      <point x="346" y="-43" type="curve"/>
    </contour>
  </outline>
</glyph>
<glyph name="questiondown" format="2">
  <advance width="578"/>
  <unicode hex="00BF"/>
  <outline>
    <contour>
      <point x="333" y="440" type="curve" smooth="yes"/>
      <point x="333" y="472"/>
      <point x="307" y="500"/>
      <point x="273" y="500" type="curve" smooth="yes"/>
      <point x="240" y="500"/>
      <point x="213" y="472"/>
      <point x="213" y="440" type="curve" smooth="yes"/>
      <point x="213" y="408"/>
      <point x="239" y="380"/>
      <point x="273" y="380" type="curve" smooth="yes"/>
      <point x="306" y="380"/>
      <point x="333" y="408"/>
    </contour>
    <contour>
      <point x="255" y="261" type="line" smooth="yes"/>
      <point x="255" y="221"/>
      <point x="255" y="120"/>
      <point x="139" y="37" type="curve" smooth="yes"/>
      <point x="119" y="22"/>
      <point x="79" y="-6"/>
      <point x="79" y="-69" type="curve" smooth="yes"/>
      <point x="79" y="-105"/>
      <point x="95" y="-204"/>
      <point x="273" y="-204" type="curve" smooth="yes"/>
      <point x="413" y="-204"/>
      <point x="499" y="-152"/>
      <point x="499" y="-71" type="curve" smooth="yes"/>
      <point x="499" y="-25"/>
      <point x="459" y="-20"/>
      <point x="450" y="-20" type="curve" smooth="yes"/>
      <point x="435" y="-20"/>
      <point x="402" y="-30"/>
      <point x="402" y="-69" type="curve" smooth="yes"/>
      <point x="402" y="-86"/>
      <point x="411" y="-112"/>
      <point x="445" y="-117" type="curve"/>
      <point x="403" y="-170"/>
      <point x="298" y="-172"/>
      <point x="276" y="-172" type="curve" smooth="yes"/>
      <point x="176" y="-172"/>
      <point x="174" y="-121"/>
      <point x="174" y="-76" type="curve" smooth="yes"/>
      <point x="174" y="-40"/>
      <point x="178" y="-16"/>
      <point x="202" y="11" type="curve" smooth="yes"/>
      <point x="284" y="101"/>
      <point x="292" y="188"/>
      <point x="292" y="264" type="curve" smooth="yes"/>
      <point x="292" y="294"/>
      <point x="292" y="303"/>
      <point x="273" y="303" type="curve" smooth="yes"/>
      <point x="255" y="303"/>
      <point x="255" y="294"/>
      <point x="255" y="276" type="curve" smooth="yes"/>
    </contour>
  </outline>
</glyph>
<glyph name="AE" format="2">
  <advance width="1077"/>
  <unicode hex="00C6"/>
  <outline>
    <contour>
      <point x="55" y="0" type="line"/>
      <point x="91" y="3"/>
      <point x="126" y="4"/>
      <point x="162" y="4" type="curve" smooth="yes"/>
      <point x="204" y="4"/>
      <point x="271" y="1"/>
      <point x="286" y="0" type="curve"/>
      <point x="286" y="39" type="line"/>
      <point x="231" y="40"/>
      <point x="214" y="66"/>
      <point x="214" y="86" type="curve" smooth="yes"/>
      <point x="214" y="93"/>
      <point x="217" y="100"/>
      <point x="219" y="104" type="curve"/>
      <point x="307" y="309" type="line"/>
      <point x="496" y="309" type="line"/>
      <point x="496" y="82" type="line" smooth="yes"/>
      <point x="496" y="39"/>
      <point x="486" y="39"/>
      <point x="416" y="39" type="curve"/>
      <point x="416" y="0" type="line"/>
      <point x="984" y="0" type="line"/>
      <point x="1031" y="266" type="line"/>
      <point x="994" y="266" type="line"/>
      <point x="967" y="114"/>
      <point x="945" y="39"/>
      <point x="770" y="39" type="curve" smooth="yes"/>
      <point x="639" y="39" type="line" smooth="yes"/>
      <point x="590" y="39"/>
      <point x="590" y="47"/>
      <point x="590" y="78" type="curve" smooth="yes"/>
      <point x="590" y="309" type="line"/>
      <point x="692" y="309" type="line" smooth="yes"/>
      <point x="793" y="309"/>
      <point x="808" y="279"/>
      <point x="808" y="192" type="curve"/>
      <point x="845" y="192" type="line"/>
      <point x="845" y="465" type="line"/>
      <point x="808" y="465" type="line"/>
      <point x="808" y="378"/>
      <point x="793" y="348"/>
      <point x="692" y="348" type="curve" smooth="yes"/>
      <point x="590" y="348" type="line"/>
      <point x="590" y="605" type="line" smooth="yes"/>
      <point x="590" y="636"/>
      <point x="590" y="644"/>
      <point x="639" y="644" type="curve" smooth="yes"/>
      <point x="764" y="644" type="line" smooth="yes"/>
      <point x="930" y="644"/>
      <point x="943" y="575"/>
      <point x="961" y="450" type="curve"/>
      <point x="998" y="450" type="line"/>
      <point x="967" y="683" type="line"/>
      <point x="325" y="683" type="line"/>
      <point x="325" y="644" type="line"/>
      <point x="409" y="644" type="line"/>
      <point x="177" y="104" type="line" smooth="yes"/>
      <point x="153" y="47"/>
      <point x="98" y="39"/>
      <point x="55" y="39" type="curve"/>
    </contour>
    <contour>
      <point x="324" y="348" type="line"/>
      <point x="450" y="640" type="line"/>
      <point x="495" y="640"/>
      <point x="496" y="618"/>
      <point x="496" y="598" type="curve" smooth="yes"/>
      <point x="496" y="348" type="line"/>
    </contour>
  </outline>
</glyph>
<glyph name="germandbls" format="2">
  <advance width="611"/>
  <unicode hex="00DF"/>
  <outline>
    <contour>
      <point x="395" y="413" type="curve"/>
      <point x="485" y="444"/>
      <point x="531" y="502"/>
      <point x="531" y="559" type="curve" smooth="yes"/>
      <point x="531" y="637"/>
      <point x="447" y="704"/>
      <point x="332" y="704" type="curve" smooth="yes"/>
      <point x="239" y="704"/>
      <point x="137" y="654"/>
      <point x="137" y="553" type="curve" smooth="yes"/>
      <point x="137" y="431" type="line"/>
      <point x="58" y="431" type="line"/>
      <point x="58" y="392" type="line"/>
      <point x="137" y="392" type="line"/>
      <point x="137" y="82" type="line" smooth="yes"/>
      <point x="137" y="39"/>
      <point x="127" y="39"/>
      <point x="58" y="39" type="curve"/>
      <point x="58" y="0" type="line"/>
      <point x="75" y="1"/>
      <point x="147" y="4"/>
      <point x="167" y="4" type="curve" smooth="yes"/>
      <point x="177" y="4"/>
      <point x="193" y="4"/>
      <point x="216" y="0" type="curve"/>
      <point x="216" y="552" type="line" smooth="yes"/>
      <point x="216" y="672"/>
      <point x="323" y="672"/>
      <point x="331" y="672" type="curve" smooth="yes"/>
      <point x="388" y="672"/>
      <point x="444" y="636"/>
      <point x="444" y="560" type="curve" smooth="yes"/>
      <point x="444" y="492"/>
      <point x="394" y="437"/>
      <point x="303" y="431" type="curve" smooth="yes"/>
      <point x="291" y="430"/>
      <point x="281" y="430"/>
      <point x="281" y="415" type="curve" smooth="yes"/>
      <point x="281" y="412"/>
      <point x="281" y="400"/>
      <point x="296" y="399" type="curve" smooth="yes"/>
      <point x="423" y="391"/>
      <point x="477" y="281"/>
      <point x="477" y="174" type="curve" smooth="yes"/>
      <point x="477" y="57"/>
      <point x="405" y="22"/>
      <point x="357" y="22" type="curve" smooth="yes"/>
      <point x="355" y="22"/>
      <point x="327" y="22"/>
      <point x="308" y="35" type="curve"/>
      <point x="312" y="37"/>
      <point x="327" y="46"/>
      <point x="327" y="69" type="curve" smooth="yes"/>
      <point x="327" y="92"/>
      <point x="312" y="108"/>
      <point x="288" y="108" type="curve" smooth="yes"/>
      <point x="266" y="108"/>
      <point x="249" y="93"/>
      <point x="249" y="68" type="curve" smooth="yes"/>
      <point x="249" y="25"/>
      <point x="291" y="-10"/>
      <point x="359" y="-10" type="curve" smooth="yes"/>
      <point x="467" y="-10"/>
      <point x="564" y="67"/>
      <point x="564" y="174" type="curve" smooth="yes"/>
      <point x="564" y="268"/>
      <point x="506" y="369"/>
    </contour>
  </outline>
</glyph>
<glyph name="oslash" format="2">
  <advance width="611"/>
  <unicode hex="00F8"/>
  <outline>
    <contour>
      <point x="528" y="519" type="line"/>
      <point x="501" y="537" type="line"/>
      <point x="422" y="419" type="line"/>
      <point x="393" y="434"/>
      <point x="352" y="446"/>
      <point x="305" y="446" type="curve" smooth="yes"/>
      <point x="163" y="446"/>
      <point x="54" y="338"/>
      <point x="54" y="213" type="curve" smooth="yes"/>
      <point x="54" y="126"/>
      <point x="109" y="62"/>
      <point x="161" y="30" type="curve"/>
      <point x="83" y="-88" type="line"/>
      <point x="108" y="-106" type="line"/>
      <point x="189" y="14" type="line"/>
      <point x="246" y="-10"/>
      <point x="293" y="-10"/>
      <point x="305" y="-10" type="curve" smooth="yes"/>
      <point x="446" y="-10"/>
      <point x="556" y="92"/>
      <point x="556" y="213" type="curve" smooth="yes"/>
      <point x="556" y="279"/>
      <point x="523" y="355"/>
      <point x="450" y="403" type="curve"/>
    </contour>
    <contour>
      <point x="185" y="66" type="line"/>
      <point x="140" y="105"/>
      <point x="137" y="174"/>
      <point x="137" y="213" type="curve" smooth="yes"/>
      <point x="137" y="273"/>
      <point x="145" y="322"/>
      <point x="178" y="361" type="curve" smooth="yes"/>
      <point x="208" y="396"/>
      <point x="256" y="414"/>
      <point x="305" y="414" type="curve" smooth="yes"/>
      <point x="353" y="414"/>
      <point x="388" y="396"/>
      <point x="401" y="388" type="curve"/>
    </contour>
    <contour>
      <point x="426" y="367" type="line"/>
      <point x="464" y="329"/>
      <point x="473" y="274"/>
      <point x="473" y="213" type="curve" smooth="yes"/>
      <point x="473" y="174"/>
      <point x="473" y="22"/>
      <point x="305" y="22" type="curve" smooth="yes"/>
      <point x="251" y="22"/>
      <point x="215" y="43"/>
      <point x="211" y="45" type="curve"/>
    </contour>
  </outline>
</glyph>
<glyph name="dotlessi" format="2">
  <advance width="351"/>
  <unicode hex="0131"/>
  <outline>
    <contour>
      <point x="222" y="441" type="line"/>
      <point x="68" y="430" type="line"/>
      <point x="68" y="391" type="line"/>
      <point x="134" y="391"/>
      <point x="143" y="384"/>
      <point x="143" y="335" type="curve" smooth="yes"/>
      <point x="143" y="82" type="line" smooth="yes"/>
      <point x="143" y="39"/>
      <point x="133" y="39"/>
      <point x="64" y="39" type="curve"/>
      <point x="64" y="0" type="line"/>
      <point x="93" y="2"/>
      <point x="171" y="4"/>
      <point x="181" y="4" type="curve" smooth="yes"/>
      <point x="191" y="4"/>
      <point x="267" y="2"/>
      <point x="293" y="0" type="curve"/>
      <point x="293" y="39" type="line"/>
      <point x="231" y="39"/>
      <point x="222" y="39"/>
      <point x="222" y="81" type="curve" smooth="yes"/>
    </contour>
  </outline>
</glyph>
<glyph name="OE" format="2">
  <advance width="1207"/>
  <unicode hex="0152"/>
  <outline>
    <contour>
      <point x="1160" y="266" type="line"/>
      <point x="1123" y="266" type="line"/>
      <point x="1096" y="115"/>
      <point x="1073" y="39"/>
      <point x="895" y="39" type="curve" smooth="yes"/>
      <point x="746" y="39" type="line" smooth="yes"/>
      <point x="697" y="39"/>
      <point x="697" y="47"/>
      <point x="697" y="78" type="curve" smooth="yes"/>
      <point x="697" y="335" type="line"/>
      <point x="824" y="335" type="line" smooth="yes"/>
      <point x="923" y="335"/>
      <point x="953" y="316"/>
      <point x="953" y="218" type="curve"/>
      <point x="990" y="218" type="line"/>
      <point x="990" y="491" type="line"/>
      <point x="953" y="491" type="line"/>
      <point x="953" y="394"/>
      <point x="923" y="374"/>
      <point x="824" y="374" type="curve" smooth="yes"/>
      <point x="697" y="374" type="line"/>
      <point x="697" y="605" type="line" smooth="yes"/>
      <point x="697" y="636"/>
      <point x="697" y="644"/>
      <point x="746" y="644" type="curve" smooth="yes"/>
      <point x="886" y="644" type="line" smooth="yes"/>
      <point x="1051" y="644"/>
      <point x="1072" y="583"/>
      <point x="1090" y="450" type="curve"/>
      <point x="1127" y="450" type="line"/>
      <point x="1096" y="683" type="line"/>
      <point x="655" y="683" type="line" smooth="yes"/>
      <point x="643" y="683"/>
      <point x="623" y="683"/>
      <point x="578" y="692" type="curve" smooth="yes"/>
      <point x="516" y="703"/>
      <point x="498" y="704"/>
      <point x="477" y="704" type="curve" smooth="yes"/>
      <point x="268" y="704"/>
      <point x="92" y="541"/>
      <point x="92" y="339" type="curve" smooth="yes"/>
      <point x="92" y="136"/>
      <point x="271" y="-21"/>
      <point x="477" y="-21" type="curve" smooth="yes"/>
      <point x="493" y="-21"/>
      <point x="511" y="-21"/>
      <point x="562" y="-11" type="curve" smooth="yes"/>
      <point x="608" y="-3"/>
      <point x="629" y="0"/>
      <point x="655" y="0" type="curve" smooth="yes"/>
      <point x="1113" y="0" type="line"/>
    </contour>
    <contour>
      <point x="483" y="11" type="curve" smooth="yes"/>
      <point x="320" y="11"/>
      <point x="199" y="170"/>
      <point x="199" y="354" type="curve" smooth="yes"/>
      <point x="199" y="530"/>
      <point x="323" y="672"/>
      <point x="483" y="672" type="curve" smooth="yes"/>
      <point x="597" y="672"/>
      <point x="607" y="622"/>
      <point x="609" y="482" type="curve" smooth="yes"/>
      <point x="610" y="435"/>
      <point x="610" y="389"/>
      <point x="610" y="342" type="curve" smooth="yes"/>
      <point x="610" y="206"/>
      <point x="610" y="156"/>
      <point x="605" y="118" type="curve" smooth="yes"/>
      <point x="596" y="46"/>
      <point x="577" y="11"/>
    </contour>
  </outline>
</glyph>
<glyph name="oe" format="2">
  <advance width="935"/>
  <unicode hex="0153"/>
  <outline>
    <contour>
      <point x="295" y="-10" type="curve" smooth="yes"/>
      <point x="373" y="-10"/>
      <point x="447" y="22"/>
      <point x="501" y="92" type="curve"/>
      <point x="540" y="35"/>
      <point x="619" y="-10"/>
      <point x="708" y="-10" type="curve" smooth="yes"/>
      <point x="838" y="-10"/>
      <point x="888" y="96"/>
      <point x="888" y="120" type="curve" smooth="yes"/>
      <point x="888" y="125"/>
      <point x="886" y="136"/>
      <point x="869" y="136" type="curve" smooth="yes"/>
      <point x="856" y="136"/>
      <point x="853" y="129"/>
      <point x="850" y="119" type="curve"/>
      <point x="822" y="43"/>
      <point x="754" y="25"/>
      <point x="713" y="25" type="curve" smooth="yes"/>
      <point x="674" y="25"/>
      <point x="541" y="45"/>
      <point x="541" y="226" type="curve"/>
      <point x="858" y="226" type="line" smooth="yes"/>
      <point x="880" y="226"/>
      <point x="888" y="226"/>
      <point x="888" y="250" type="curve" smooth="yes"/>
      <point x="888" y="338"/>
      <point x="840" y="446"/>
      <point x="694" y="446" type="curve" smooth="yes"/>
      <point x="635" y="446"/>
      <point x="558" y="426"/>
      <point x="498" y="347" type="curve"/>
      <point x="453" y="408"/>
      <point x="379" y="446"/>
      <point x="295" y="446" type="curve" smooth="yes"/>
      <point x="159" y="446"/>
      <point x="48" y="345"/>
      <point x="48" y="218" type="curve" smooth="yes"/>
      <point x="48" y="94"/>
      <point x="157" y="-10"/>
    </contour>
    <contour>
      <point x="296" y="22" type="curve" smooth="yes"/>
      <point x="258" y="22"/>
      <point x="136" y="42"/>
      <point x="136" y="223" type="curve" smooth="yes"/>
      <point x="136" y="398"/>
      <point x="260" y="414"/>
      <point x="296" y="414" type="curve" smooth="yes"/>
      <point x="345" y="414"/>
      <point x="458" y="386"/>
      <point x="458" y="223" type="curve" smooth="yes"/>
      <point x="458" y="49"/>
      <point x="342" y="22"/>
    </contour>
    <contour>
      <point x="543" y="256" type="line"/>
      <point x="556" y="381"/>
      <point x="644" y="414"/>
      <point x="692" y="414" type="curve" smooth="yes"/>
      <point x="809" y="414"/>
      <point x="814" y="283"/>
      <point x="815" y="256" type="curve"/>
    </contour>
  </outline>
</glyph>
<glyph name="circumflex" format="2">
  <advance width="611"/>
  <unicode hex="02C6"/>
  <outline>
    <contour>
      <point x="305" y="694" type="line"/>
      <point x="149" y="561" type="line"/>
      <point x="171" y="532" type="line"/>
      <point x="305" y="631" type="line"/>
      <point x="439" y="532" type="line"/>
      <point x="461" y="561" type="line"/>
    </contour>
  </outline>
</glyph>
<glyph name="caron" format="2">
  <advance width="611"/>
  <unicode hex="02C7"/>
  <outline>
    <contour>
      <point x="305" y="577" type="line"/>
      <point x="169" y="644" type="line"/>
      <point x="151" y="612" type="line"/>
      <point x="305" y="514" type="line"/>
      <point x="459" y="612" type="line"/>
      <point x="441" y="644" type="line"/>
    </contour>
  </outline>
</glyph>
<glyph name="ring" format="2">
  <advance width="896"/>
  <unicode hex="02DA"/>
  <outline>
    <contour>
      <point x="563" y="627" type="curve" smooth="yes"/>
      <point x="563" y="675"/>
      <point x="513" y="715"/>
      <point x="448" y="715" type="curve" smooth="yes"/>
      <point x="378" y="715"/>
      <point x="332" y="671"/>
      <point x="332" y="628" type="curve" smooth="yes"/>
      <point x="332" y="580"/>
      <point x="382" y="540"/>
      <point x="447" y="540" type="curve" smooth="yes"/>
      <point x="517" y="540"/>
      <point x="563" y="584"/>
    </contour>
    <contour>
      <point x="448" y="572" type="curve" smooth="yes"/>
      <point x="420" y="572"/>
      <point x="369" y="572"/>
      <point x="369" y="627" type="curve" smooth="yes"/>
      <point x="369" y="683"/>
      <point x="419" y="683"/>
      <point x="447" y="683" type="curve" smooth="yes"/>
      <point x="475" y="683"/>
      <point x="526" y="683"/>
      <point x="526" y="628" type="curve" smooth="yes"/>
      <point x="526" y="572"/>
      <point x="476" y="572"/>
    </contour>
  </outline>
</glyph>
<glyph name="tilde" format="2">
  <advance width="611"/>
  <unicode hex="02DC"/>
  <outline>
    <contour>
      <point x="477" y="675" type="line"/>
      <point x="437" y="637"/>
      <point x="411" y="631"/>
      <point x="388" y="631" type="curve" smooth="yes"/>
      <point x="364" y="631"/>
      <point x="342" y="640"/>
      <point x="317" y="651" type="curve" smooth="yes"/>
      <point x="285" y="665"/>
      <point x="262" y="675"/>
      <point x="235" y="675" type="curve" smooth="yes"/>
      <point x="213" y="675"/>
      <point x="188" y="667"/>
      <point x="162" y="644" type="curve" smooth="yes"/>
      <point x="136" y="622"/>
      <point x="161" y="642"/>
      <point x="111" y="594" type="curve"/>
      <point x="133" y="571" type="line"/>
      <point x="173" y="609"/>
      <point x="199" y="615"/>
      <point x="222" y="615" type="curve" smooth="yes"/>
      <point x="246" y="615"/>
      <point x="268" y="606"/>
      <point x="293" y="595" type="curve" smooth="yes"/>
      <point x="325" y="581"/>
      <point x="348" y="571"/>
      <point x="375" y="571" type="curve" smooth="yes"/>
      <point x="397" y="571"/>
      <point x="422" y="579"/>
      <point x="448" y="602" type="curve" smooth="yes"/>
      <point x="474" y="624"/>
      <point x="449" y="604"/>
      <point x="499" y="652" type="curve"/>
    </contour>
  </outline>
</glyph>
<glyph name="hungarumlaut" format="2">
  <advance width="611"/>
  <unicode hex="02DD"/>
  <outline>
    <contour>
      <point x="161" y="529" type="line"/>
      <point x="191" y="508" type="line"/>
      <point x="295" y="626" type="line" smooth="yes"/>
      <point x="302" y="634"/>
      <point x="310" y="644"/>
      <point x="310" y="658" type="curve" smooth="yes"/>
      <point x="310" y="679"/>
      <point x="290" y="700"/>
      <point x="265" y="700" type="curve" smooth="yes"/>
      <point x="254" y="700"/>
      <point x="239" y="698"/>
      <point x="226" y="670" type="curve" smooth="yes"/>
    </contour>
    <contour>
      <point x="355" y="529" type="line"/>
      <point x="385" y="508" type="line"/>
      <point x="489" y="626" type="line" smooth="yes"/>
      <point x="496" y="634"/>
      <point x="504" y="644"/>
      <point x="504" y="658" type="curve" smooth="yes"/>
      <point x="504" y="679"/>
      <point x="484" y="700"/>
      <point x="459" y="700" type="curve" smooth="yes"/>
      <point x="448" y="700"/>
      <point x="433" y="698"/>
      <point x="420" y="670" type="curve" smooth="yes"/>
    </contour>
  </outline>
</glyph>
<glyph name="Gamma" format="2">
  <advance width="753"/>
  <unicode hex="0393"/>
  <outline>
    <contour>
      <point x="659" y="679" type="line"/>
      <point x="65" y="679" type="line"/>
      <point x="65" y="640" type="line"/>
      <point x="91" y="640" type="line" smooth="yes"/>
      <point x="171" y="640"/>
      <point x="171" y="628"/>
      <point x="171" y="595" type="curve" smooth="yes"/>
      <point x="171" y="84" type="line" smooth="yes"/>
      <point x="171" y="51"/>
      <point x="171" y="39"/>
      <point x="91" y="39" type="curve" smooth="yes"/>
      <point x="65" y="39" type="line"/>
      <point x="65" y="0" type="line"/>
      <point x="84" y="1"/>
      <point x="179" y="4"/>
      <point x="224" y="4" type="curve" smooth="yes"/>
      <point x="278" y="4"/>
      <point x="351" y="4"/>
      <point x="404" y="0" type="curve"/>
      <point x="404" y="39" type="line"/>
      <point x="367" y="39" type="line" smooth="yes"/>
      <point x="271" y="39"/>
      <point x="271" y="51"/>
      <point x="271" y="84" type="curve" smooth="yes"/>
      <point x="271" y="601" type="line" smooth="yes"/>
      <point x="271" y="632"/>
      <point x="271" y="640"/>
      <point x="320" y="640" type="curve" smooth="yes"/>
      <point x="451" y="640" type="line" smooth="yes"/>
      <point x="616" y="640"/>
      <point x="635" y="577"/>
      <point x="653" y="446" type="curve"/>
      <point x="690" y="446" type="line"/>
    </contour>
  </outline>
</glyph>
<glyph name="Theta" format="2">
  <advance width="935"/>
  <unicode hex="0398"/>
  <outline>
    <contour>
      <point x="855" y="339" type="curve" smooth="yes"/>
      <point x="855" y="536"/>
      <point x="685" y="704"/>
      <point x="467" y="704" type="curve" smooth="yes"/>
      <point x="249" y="704"/>
      <point x="79" y="536"/>
      <point x="79" y="339" type="curve" smooth="yes"/>
      <point x="79" y="141"/>
      <point x="251" y="-21"/>
      <point x="467" y="-21" type="curve" smooth="yes"/>
      <point x="683" y="-21"/>
      <point x="855" y="141"/>
    </contour>
    <contour>
      <point x="467" y="13" type="curve" smooth="yes"/>
      <point x="332" y="13"/>
      <point x="183" y="112"/>
      <point x="183" y="339" type="curve" smooth="yes"/>
      <point x="183" y="567"/>
      <point x="330" y="672"/>
      <point x="467" y="672" type="curve" smooth="yes"/>
      <point x="604" y="672"/>
      <point x="751" y="566"/>
      <point x="751" y="339" type="curve" smooth="yes"/>
      <point x="751" y="113"/>
      <point x="602" y="13"/>
    </contour>
    <contour>
      <point x="685" y="420" type="line"/>
      <point x="648" y="420" type="line"/>
      <point x="648" y="386" type="line"/>
      <point x="286" y="386" type="line"/>
      <point x="286" y="420" type="line"/>
      <point x="249" y="420" type="line"/>
      <point x="249" y="266" type="line"/>
      <point x="286" y="266" type="line"/>
      <point x="286" y="300" type="line"/>
      <point x="648" y="300" type="line"/>
      <point x="648" y="266" type="line"/>
      <point x="685" y="266" type="line"/>
    </contour>
  </outline>
</glyph>
<glyph name="Lambda" format="2">
  <advance width="831"/>
  <unicode hex="039B"/>
  <outline>
    <contour>
      <point x="54" y="0" type="line"/>
      <point x="62" y="1"/>
      <point x="110" y="4"/>
      <point x="152" y="4" type="curve" smooth="yes"/>
      <point x="194" y="4"/>
      <point x="262" y="1"/>
      <point x="274" y="0" type="curve"/>
      <point x="274" y="39" type="line"/>
      <point x="229" y="39"/>
      <point x="199" y="59"/>
      <point x="199" y="87" type="curve" smooth="yes"/>
      <point x="199" y="94"/>
      <point x="199" y="96"/>
      <point x="204" y="108" type="curve" smooth="yes"/>
      <point x="382" y="574" type="line"/>
      <point x="571" y="80" type="line" smooth="yes"/>
      <point x="575" y="70"/>
      <point x="575" y="68"/>
      <point x="575" y="67" type="curve" smooth="yes"/>
      <point x="575" y="39"/>
      <point x="519" y="39"/>
      <point x="491" y="39" type="curve"/>
      <point x="491" y="0" type="line"/>
      <point x="505" y="0"/>
      <point x="605" y="4"/>
      <point x="645" y="4" type="curve" smooth="yes"/>
      <point x="674" y="4"/>
      <point x="742" y="2"/>
      <point x="776" y="0" type="curve"/>
      <point x="776" y="39" type="line"/>
      <point x="776" y="39" type="line"/>
      <point x="710" y="39"/>
      <point x="694" y="39"/>
      <point x="680" y="76" type="curve" smooth="yes"/>
      <point x="445" y="690" type="line" smooth="yes"/>
      <point x="440" y="703"/>
      <point x="436" y="714"/>
      <point x="415" y="714" type="curve" smooth="yes"/>
      <point x="394" y="714"/>
      <point x="390" y="703"/>
      <point x="385" y="690" type="curve" smooth="yes"/>
      <point x="161" y="106" type="line" smooth="yes"/>
      <point x="152" y="82"/>
      <point x="136" y="40"/>
      <point x="54" y="39" type="curve"/>
    </contour>
  </outline>
</glyph>
<glyph name="Xi" format="2">
  <advance width="805"/>
  <unicode hex="039E"/>
  <outline>
    <contour>
      <point x="72" y="0" type="line"/>
      <point x="733" y="0" type="line"/>
      <point x="742" y="177" type="line"/>
      <point x="705" y="177" type="line"/>
      <point x="704" y="155"/>
      <point x="702" y="106"/>
      <point x="692" y="90" type="curve"/>
      <point x="685" y="80"/>
      <point x="621" y="80"/>
      <point x="603" y="80" type="curve" smooth="yes"/>
      <point x="202" y="80" type="line" smooth="yes"/>
      <point x="189" y="80"/>
      <point x="122" y="80"/>
      <point x="115" y="88" type="curve" smooth="yes"/>
      <point x="103" y="101"/>
      <point x="101" y="152"/>
      <point x="100" y="177" type="curve"/>
      <point x="63" y="177" type="line"/>
    </contour>
    <contour>
      <point x="176" y="259" type="line"/>
      <point x="213" y="259" type="line"/>
      <point x="213" y="312" type="line"/>
      <point x="592" y="312" type="line"/>
      <point x="592" y="259" type="line"/>
      <point x="629" y="259" type="line"/>
      <point x="629" y="445" type="line"/>
      <point x="592" y="445" type="line"/>
      <point x="592" y="392" type="line"/>
      <point x="213" y="392" type="line"/>
      <point x="213" y="445" type="line"/>
      <point x="176" y="445" type="line"/>
    </contour>
    <contour>
      <point x="69" y="510" type="line"/>
      <point x="106" y="510" type="line"/>
      <point x="107" y="526"/>
      <point x="109" y="580"/>
      <point x="122" y="589" type="curve"/>
      <point x="130" y="596"/>
      <point x="190" y="596"/>
      <point x="203" y="596" type="curve" smooth="yes"/>
      <point x="602" y="596" type="line" smooth="yes"/>
      <point x="604" y="596"/>
      <point x="678" y="596"/>
      <point x="684" y="588" type="curve"/>
      <point x="696" y="576"/>
      <point x="698" y="529"/>
      <point x="699" y="510" type="curve"/>
      <point x="736" y="510" type="line"/>
      <point x="727" y="676" type="line"/>
      <point x="78" y="676" type="line"/>
    </contour>
  </outline>
</glyph>
<glyph name="Pi" format="2">
  <advance width="896"/>
  <unicode hex="03A0"/>
  <outline>
    <contour>
      <point x="724" y="595" type="line" smooth="yes"/>
      <point x="724" y="628"/>
      <point x="724" y="640"/>
      <point x="804" y="640" type="curve" smooth="yes"/>
      <point x="830" y="640" type="line"/>
      <point x="830" y="679" type="line"/>
      <point x="65" y="679" type="line"/>
      <point x="65" y="640" type="line"/>
      <point x="91" y="640" type="line" smooth="yes"/>
      <point x="171" y="640"/>
      <point x="171" y="628"/>
      <point x="171" y="595" type="curve" smooth="yes"/>
      <point x="171" y="84" type="line" smooth="yes"/>
      <point x="171" y="51"/>
      <point x="171" y="39"/>
      <point x="91" y="39" type="curve" smooth="yes"/>
      <point x="65" y="39" type="line"/>
      <point x="65" y="0" type="line"/>
      <point x="79" y="1"/>
      <point x="179" y="4"/>
      <point x="221" y="4" type="curve" smooth="yes"/>
      <point x="263" y="4"/>
      <point x="361" y="1"/>
      <point x="377" y="0" type="curve"/>
      <point x="377" y="39" type="line"/>
      <point x="351" y="39" type="line" smooth="yes"/>
      <point x="271" y="39"/>
      <point x="271" y="51"/>
      <point x="271" y="84" type="curve" smooth="yes"/>
      <point x="271" y="640" type="line"/>
      <point x="624" y="640" type="line"/>
      <point x="624" y="84" type="line" smooth="yes"/>
      <point x="624" y="51"/>
      <point x="624" y="39"/>
      <point x="544" y="39" type="curve" smooth="yes"/>
      <point x="518" y="39" type="line"/>
      <point x="518" y="0" type="line"/>
      <point x="532" y="1"/>
      <point x="632" y="4"/>
      <point x="674" y="4" type="curve" smooth="yes"/>
      <point x="716" y="4"/>
      <point x="814" y="1"/>
      <point x="830" y="0" type="curve"/>
      <point x="830" y="39" type="line"/>
      <point x="804" y="39" type="line" smooth="yes"/>
      <point x="724" y="39"/>
      <point x="724" y="51"/>
      <point x="724" y="84" type="curve" smooth="yes"/>
    </contour>
  </outline>
</glyph>
<glyph name="Sigma" format="2">
  <advance width="870"/>
  <unicode hex="03A3"/>
  <outline>
    <contour>
      <point x="445" y="323" type="line" smooth="yes"/>
      <point x="455" y="333"/>
      <point x="457" y="334"/>
      <point x="457" y="342" type="curve" smooth="yes"/>
      <point x="457" y="347"/>
      <point x="456" y="348"/>
      <point x="448" y="358" type="curve" smooth="yes"/>
      <point x="216" y="644" type="line"/>
      <point x="480" y="644" type="line" smooth="yes"/>
      <point x="544" y="644"/>
      <point x="622" y="637"/>
      <point x="659" y="620" type="curve" smooth="yes"/>
      <point x="716" y="592"/>
      <point x="743" y="526"/>
      <point x="753" y="450" type="curve"/>
      <point x="790" y="450" type="line"/>
      <point x="759" y="683" type="line"/>
      <point x="109" y="683" type="line" smooth="yes"/>
      <point x="90" y="683"/>
      <point x="79" y="683"/>
      <point x="79" y="663" type="curve" smooth="yes"/>
      <point x="79" y="656"/>
      <point x="79" y="654"/>
      <point x="88" y="644" type="curve"/>
      <point x="366" y="301" type="line"/>
      <point x="91" y="34" type="line" smooth="yes"/>
      <point x="81" y="25"/>
      <point x="79" y="23"/>
      <point x="79" y="16" type="curve" smooth="yes"/>
      <point x="79" y="0"/>
      <point x="94" y="0"/>
      <point x="109" y="0" type="curve" smooth="yes"/>
      <point x="759" y="0" type="line"/>
      <point x="790" y="245" type="line"/>
      <point x="753" y="245" type="line"/>
      <point x="738" y="130"/>
      <point x="690" y="87"/>
      <point x="655" y="73" type="curve" smooth="yes"/>
      <point x="598" y="51"/>
      <point x="494" y="51"/>
      <point x="478" y="51" type="curve" smooth="yes"/>
      <point x="164" y="51" type="line"/>
    </contour>
  </outline>
</glyph>
<glyph name="Upsilon" format="2">
  <advance width="935"/>
  <unicode hex="03A5"/>
  <outline>
    <contour>
      <point x="284" y="0" type="line"/>
      <point x="338" y="4"/>
      <point x="412" y="4"/>
      <point x="467" y="4" type="curve" smooth="yes"/>
      <point x="522" y="4"/>
      <point x="596" y="4"/>
      <point x="650" y="0" type="curve"/>
      <point x="650" y="39" type="line"/>
      <point x="623" y="39"/>
      <point x="589" y="39"/>
      <point x="563" y="41" type="curve" smooth="yes"/>
      <point x="517" y="45"/>
      <point x="517" y="59"/>
      <point x="517" y="86" type="curve" smooth="yes"/>
      <point x="517" y="343" type="line" smooth="yes"/>
      <point x="517" y="473"/>
      <point x="573" y="621"/>
      <point x="703" y="621" type="curve" smooth="yes"/>
      <point x="750" y="621"/>
      <point x="814" y="602"/>
      <point x="816" y="545" type="curve" smooth="yes"/>
      <point x="817" y="535"/>
      <point x="826" y="530"/>
      <point x="835" y="530" type="curve" smooth="yes"/>
      <point x="855" y="530"/>
      <point x="855" y="545"/>
      <point x="855" y="551" type="curve" smooth="yes"/>
      <point x="855" y="619"/>
      <point x="799" y="704"/>
      <point x="700" y="704" type="curve" smooth="yes"/>
      <point x="602" y="704"/>
      <point x="505" y="631"/>
      <point x="468" y="454" type="curve"/>
      <point x="467" y="454" type="line"/>
      <point x="428" y="636"/>
      <point x="328" y="704"/>
      <point x="234" y="704" type="curve" smooth="yes"/>
      <point x="135" y="704"/>
      <point x="79" y="619"/>
      <point x="79" y="551" type="curve" smooth="yes"/>
      <point x="79" y="545"/>
      <point x="79" y="530"/>
      <point x="99" y="530" type="curve" smooth="yes"/>
      <point x="116" y="530"/>
      <point x="118" y="543"/>
      <point x="118" y="547" type="curve"/>
      <point x="126" y="621"/>
      <point x="222" y="621"/>
      <point x="231" y="621" type="curve" smooth="yes"/>
      <point x="361" y="621"/>
      <point x="417" y="472"/>
      <point x="417" y="343" type="curve" smooth="yes"/>
      <point x="417" y="86" type="line" smooth="yes"/>
      <point x="417" y="60"/>
      <point x="417" y="45"/>
      <point x="373" y="41" type="curve" smooth="yes"/>
      <point x="347" y="39"/>
      <point x="306" y="39"/>
      <point x="284" y="39" type="curve"/>
    </contour>
  </outline>
</glyph>
<glyph name="Phi" format="2">
  <advance width="870"/>
  <unicode hex="03A6"/>
  <outline>
    <contour>
      <point x="478" y="142" type="line"/>
      <point x="635" y="151"/>
      <point x="790" y="231"/>
      <point x="790" y="341" type="curve" smooth="yes"/>
      <point x="790" y="455"/>
      <point x="630" y="532"/>
      <point x="478" y="541" type="curve"/>
      <point x="478" y="599" type="line" smooth="yes"/>
      <point x="478" y="632"/>
      <point x="478" y="644"/>
      <point x="574" y="644" type="curve" smooth="yes"/>
      <point x="611" y="644" type="line"/>
      <point x="611" y="683" type="line"/>
      <point x="551" y="680"/>
      <point x="492" y="679"/>
      <point x="432" y="679" type="curve" smooth="yes"/>
      <point x="374" y="679"/>
      <point x="310" y="680"/>
      <point x="252" y="683" type="curve"/>
      <point x="252" y="644" type="line"/>
      <point x="289" y="644" type="line" smooth="yes"/>
      <point x="385" y="644"/>
      <point x="385" y="632"/>
      <point x="385" y="599" type="curve" smooth="yes"/>
      <point x="385" y="540" type="line"/>
      <point x="221" y="529"/>
      <point x="79" y="446"/>
      <point x="79" y="342" type="curve" smooth="yes"/>
      <point x="79" y="234"/>
      <point x="225" y="154"/>
      <point x="385" y="143" type="curve"/>
      <point x="385" y="84" type="line" smooth="yes"/>
      <point x="385" y="51"/>
      <point x="385" y="39"/>
      <point x="289" y="39" type="curve" smooth="yes"/>
      <point x="252" y="39" type="line"/>
      <point x="252" y="0" type="line"/>
      <point x="312" y="3"/>
      <point x="371" y="4"/>
      <point x="431" y="4" type="curve" smooth="yes"/>
      <point x="489" y="4"/>
      <point x="553" y="3"/>
      <point x="611" y="0" type="curve"/>
      <point x="611" y="39" type="line"/>
      <point x="574" y="39" type="line" smooth="yes"/>
      <point x="478" y="39"/>
      <point x="478" y="51"/>
      <point x="478" y="84" type="curve" smooth="yes"/>
    </contour>
    <contour>
      <point x="385" y="175" type="line"/>
      <point x="297" y="183"/>
      <point x="186" y="217"/>
      <point x="186" y="341" type="curve" smooth="yes"/>
      <point x="186" y="474"/>
      <point x="311" y="501"/>
      <point x="385" y="508" type="curve"/>
    </contour>
    <contour>
      <point x="478" y="509" type="line"/>
      <point x="543" y="505"/>
      <point x="683" y="479"/>
      <point x="683" y="342" type="curve" smooth="yes"/>
      <point x="683" y="204"/>
      <point x="545" y="178"/>
      <point x="478" y="174" type="curve"/>
    </contour>
  </outline>
</glyph>
<glyph name="Psi" format="2">
  <advance width="935"/>
  <unicode hex="03A8"/>
  <outline>
    <contour>
      <point x="510" y="599" type="line" smooth="yes"/>
      <point x="510" y="632"/>
      <point x="510" y="644"/>
      <point x="606" y="644" type="curve" smooth="yes"/>
      <point x="643" y="644" type="line"/>
      <point x="643" y="683" type="line"/>
      <point x="583" y="680"/>
      <point x="524" y="679"/>
      <point x="464" y="679" type="curve" smooth="yes"/>
      <point x="406" y="679"/>
      <point x="342" y="680"/>
      <point x="284" y="683" type="curve"/>
      <point x="284" y="644" type="line"/>
      <point x="321" y="644" type="line" smooth="yes"/>
      <point x="417" y="644"/>
      <point x="417" y="632"/>
      <point x="417" y="599" type="curve" smooth="yes"/>
      <point x="417" y="177" type="line"/>
      <point x="257" y="207"/>
      <point x="255" y="362"/>
      <point x="255" y="420" type="curve" smooth="yes"/>
      <point x="255" y="423"/>
      <point x="254" y="551"/>
      <point x="148" y="551" type="curve" smooth="yes"/>
      <point x="109" y="551" type="line" smooth="yes"/>
      <point x="94" y="551"/>
      <point x="79" y="551"/>
      <point x="79" y="535" type="curve" smooth="yes"/>
      <point x="79" y="521"/>
      <point x="90" y="520"/>
      <point x="102" y="519" type="curve"/>
      <point x="160" y="511"/>
      <point x="162" y="423"/>
      <point x="162" y="393" type="curve" smooth="yes"/>
      <point x="163" y="340"/>
      <point x="187" y="267"/>
      <point x="224" y="229" type="curve" smooth="yes"/>
      <point x="250" y="203"/>
      <point x="298" y="154"/>
      <point x="417" y="143" type="curve"/>
      <point x="417" y="84" type="line" smooth="yes"/>
      <point x="417" y="51"/>
      <point x="417" y="39"/>
      <point x="321" y="39" type="curve" smooth="yes"/>
      <point x="284" y="39" type="line"/>
      <point x="284" y="0" type="line"/>
      <point x="344" y="3"/>
      <point x="403" y="4"/>
      <point x="463" y="4" type="curve" smooth="yes"/>
      <point x="521" y="4"/>
      <point x="585" y="3"/>
      <point x="643" y="0" type="curve"/>
      <point x="643" y="39" type="line"/>
      <point x="606" y="39" type="line" smooth="yes"/>
      <point x="510" y="39"/>
      <point x="510" y="51"/>
      <point x="510" y="84" type="curve" smooth="yes"/>
      <point x="510" y="143" type="line"/>
      <point x="594" y="151"/>
      <point x="660" y="177"/>
      <point x="708" y="228" type="curve" smooth="yes"/>
      <point x="768" y="293"/>
      <point x="772" y="384"/>
      <point x="772" y="396" type="curve" smooth="yes"/>
      <point x="772" y="426"/>
      <point x="774" y="511"/>
      <point x="835" y="519" type="curve" smooth="yes"/>
      <point x="844" y="520"/>
      <point x="855" y="521"/>
      <point x="855" y="535" type="curve" smooth="yes"/>
      <point x="855" y="551"/>
      <point x="840" y="551"/>
      <point x="825" y="551" type="curve" smooth="yes"/>
      <point x="786" y="551" type="line" smooth="yes"/>
      <point x="708" y="551"/>
      <point x="680" y="487"/>
      <point x="679" y="396" type="curve" smooth="yes"/>
      <point x="678" y="331"/>
      <point x="654" y="200"/>
      <point x="510" y="177" type="curve"/>
    </contour>
  </outline>
</glyph>
<glyph name="quoteleft" format="2">
  <advance width="351"/>
  <unicode hex="2018"/>
  <outline>
    <contour>
      <point x="132" y="483" type="curve"/>
      <point x="132" y="543"/>
      <point x="149" y="609"/>
      <point x="216" y="665" type="curve"/>
      <point x="220" y="667"/>
      <point x="224" y="671"/>
      <point x="224" y="677" type="curve" smooth="yes"/>
      <point x="224" y="685"/>
      <point x="215" y="694"/>
      <point x="207" y="694" type="curve" smooth="yes"/>
      <point x="192" y="694"/>
      <point x="100" y="615"/>
      <point x="100" y="492" type="curve" smooth="yes"/>
      <point x="100" y="425"/>
      <point x="131" y="380"/>
      <point x="176" y="380" type="curve" smooth="yes"/>
      <point x="215" y="380"/>
      <point x="236" y="409"/>
      <point x="236" y="440" type="curve" smooth="yes"/>
      <point x="236" y="471"/>
      <point x="215" y="500"/>
      <point x="176" y="500" type="curve" smooth="yes"/>
      <point x="160" y="500"/>
      <point x="143" y="495"/>
    </contour>
  </outline>
</glyph>
<glyph name="quoteright" format="2">
  <advance width="351"/>
  <unicode hex="2019"/>
  <outline>
    <contour>
      <point x="220" y="591" type="curve"/>
      <point x="220" y="531"/>
      <point x="203" y="465"/>
      <point x="136" y="409" type="curve"/>
      <point x="132" y="407"/>
      <point x="128" y="403"/>
      <point x="128" y="397" type="curve" smooth="yes"/>
      <point x="128" y="389"/>
      <point x="137" y="380"/>
      <point x="145" y="380" type="curve" smooth="yes"/>
      <point x="160" y="380"/>
      <point x="252" y="459"/>
      <point x="252" y="582" type="curve" smooth="yes"/>
      <point x="252" y="649"/>
      <point x="221" y="694"/>
      <point x="176" y="694" type="curve" smooth="yes"/>
      <point x="137" y="694"/>
      <point x="116" y="665"/>
      <point x="116" y="634" type="curve" smooth="yes"/>
      <point x="116" y="603"/>
      <point x="137" y="574"/>
      <point x="176" y="574" type="curve" smooth="yes"/>
      <point x="192" y="574"/>
      <point x="209" y="579"/>
    </contour>
  </outline>
</glyph>
<glyph name="quotedblleft" format="2">
  <advance width="611"/>
  <unicode hex="201C"/>
  <outline>
    <contour>
      <point x="226" y="483" type="curve"/>
      <point x="226" y="543"/>
      <point x="243" y="609"/>
      <point x="310" y="665" type="curve"/>
      <point x="314" y="667"/>
      <point x="318" y="671"/>
      <point x="318" y="677" type="curve" smooth="yes"/>
      <point x="318" y="685"/>
      <point x="309" y="694"/>
      <point x="301" y="694" type="curve" smooth="yes"/>
      <point x="286" y="694"/>
      <point x="194" y="615"/>
      <point x="194" y="492" type="curve" smooth="yes"/>
      <point x="194" y="425"/>
      <point x="225" y="380"/>
      <point x="270" y="380" type="curve" smooth="yes"/>
      <point x="309" y="380"/>
      <point x="330" y="409"/>
      <point x="330" y="440" type="curve" smooth="yes"/>
      <point x="330" y="471"/>
      <point x="309" y="500"/>
      <point x="270" y="500" type="curve" smooth="yes"/>
      <point x="254" y="500"/>
      <point x="237" y="495"/>
    </contour>
    <contour>
      <point x="453" y="483" type="curve"/>
      <point x="453" y="543"/>
      <point x="470" y="609"/>
      <point x="537" y="665" type="curve"/>
      <point x="541" y="667"/>
      <point x="545" y="671"/>
      <point x="545" y="677" type="curve" smooth="yes"/>
      <point x="545" y="685"/>
      <point x="536" y="694"/>
      <point x="528" y="694" type="curve" smooth="yes"/>
      <point x="513" y="694"/>
      <point x="421" y="615"/>
      <point x="421" y="492" type="curve" smooth="yes"/>
      <point x="421" y="425"/>
      <point x="452" y="380"/>
      <point x="497" y="380" type="curve" smooth="yes"/>
      <point x="536" y="380"/>
      <point x="557" y="409"/>
      <point x="557" y="440" type="curve" smooth="yes"/>
      <point x="557" y="471"/>
      <point x="536" y="500"/>
      <point x="497" y="500" type="curve" smooth="yes"/>
      <point x="481" y="500"/>
      <point x="464" y="495"/>
    </contour>
  </outline>
</glyph>
<glyph name="Omega" format="2">
  <advance width="870"/>
  <unicode hex="2126"/>
  <outline>
    <contour>
      <point x="803" y="171" type="line"/>
      <point x="766" y="171" type="line"/>
      <point x="760" y="145"/>
      <point x="753" y="112"/>
      <point x="745" y="94" type="curve" smooth="yes"/>
      <point x="740" y="83"/>
      <point x="737" y="74"/>
      <point x="675" y="74" type="curve" smooth="yes"/>
      <point x="586" y="74" type="line"/>
      <point x="603" y="125"/>
      <point x="629" y="161"/>
      <point x="677" y="222" type="curve" smooth="yes"/>
      <point x="735" y="295"/>
      <point x="790" y="364"/>
      <point x="790" y="454" type="curve" smooth="yes"/>
      <point x="790" y="590"/>
      <point x="637" y="704"/>
      <point x="435" y="704" type="curve" smooth="yes"/>
      <point x="230" y="704"/>
      <point x="79" y="589"/>
      <point x="79" y="454" type="curve" smooth="yes"/>
      <point x="79" y="364"/>
      <point x="134" y="295"/>
      <point x="192" y="221" type="curve" smooth="yes"/>
      <point x="236" y="166"/>
      <point x="265" y="127"/>
      <point x="283" y="74" type="curve"/>
      <point x="194" y="74" type="line" smooth="yes"/>
      <point x="132" y="74"/>
      <point x="128" y="83"/>
      <point x="123" y="97" type="curve" smooth="yes"/>
      <point x="117" y="112"/>
      <point x="111" y="135"/>
      <point x="103" y="171" type="curve"/>
      <point x="66" y="171" type="line"/>
      <point x="104" y="0" type="line"/>
      <point x="294" y="0" type="line" smooth="yes"/>
      <point x="316" y="0"/>
      <point x="324" y="0"/>
      <point x="324" y="24" type="curve" smooth="yes"/>
      <point x="324" y="99"/>
      <point x="283" y="186"/>
      <point x="254" y="247" type="curve" smooth="yes"/>
      <point x="222" y="312"/>
      <point x="190" y="382"/>
      <point x="190" y="454" type="curve" smooth="yes"/>
      <point x="190" y="595"/>
      <point x="311" y="672"/>
      <point x="434" y="672" type="curve" smooth="yes"/>
      <point x="563" y="672"/>
      <point x="679" y="592"/>
      <point x="679" y="454" type="curve" smooth="yes"/>
      <point x="679" y="388"/>
      <point x="653" y="325"/>
      <point x="618" y="251" type="curve" smooth="yes"/>
      <point x="585" y="183"/>
      <point x="545" y="99"/>
      <point x="545" y="24" type="curve" smooth="yes"/>
      <point x="545" y="0"/>
      <point x="553" y="0"/>
      <point x="575" y="0" type="curve" smooth="yes"/>
      <point x="765" y="0" type="line"/>
    </contour>
  </outline>
</glyph>
<glyph name="Delta" format="2">
  <advance width="1000"/>
  <unicode hex="2206"/>
  <outline>
    <contour>
      <point x="535" y="692" type="line" smooth="yes"/>
      <point x="525" y="709"/>
      <point x="517" y="714"/>
      <point x="499" y="714" type="curve" smooth="yes"/>
      <point x="481" y="714"/>
      <point x="473" y="707"/>
      <point x="464" y="692" type="curve" smooth="yes"/>
      <point x="77" y="26" type="line"/>
      <point x="75" y="23"/>
      <point x="71" y="15"/>
      <point x="71" y="11" type="curve" smooth="yes"/>
      <point x="71" y="0"/>
      <point x="80" y="0"/>
      <point x="96" y="0" type="curve" smooth="yes"/>
      <point x="903" y="0" type="line" smooth="yes"/>
      <point x="919" y="0"/>
      <point x="928" y="0"/>
      <point x="928" y="11" type="curve" smooth="yes"/>
      <point x="928" y="14"/>
      <point x="926" y="17"/>
      <point x="923" y="23" type="curve"/>
    </contour>
    <contour>
      <point x="464" y="614" type="line"/>
      <point x="771" y="86" type="line"/>
      <point x="158" y="86" type="line"/>
    </contour>
  </outline>
</glyph>
<glyph name="ff" format="2">
  <advance width="736"/>
  <outline>
    <contour>
      <point x="566" y="392" type="line"/>
      <point x="699" y="392" type="line"/>
      <point x="699" y="431" type="line"/>
      <point x="562" y="431" type="line"/>
      <point x="562" y="540" type="line" smooth="yes"/>
      <point x="562" y="631"/>
      <point x="617" y="672"/>
      <point x="663" y="672" type="curve" smooth="yes"/>
      <point x="676" y="672"/>
      <point x="687" y="669"/>
      <point x="691" y="668" type="curve"/>
      <point x="684" y="663"/>
      <point x="673" y="655"/>
      <point x="673" y="630" type="curve" smooth="yes"/>
      <point x="673" y="604"/>
      <point x="691" y="583"/>
      <point x="720" y="583" type="curve" smooth="yes"/>
      <point x="749" y="583"/>
      <point x="767" y="604"/>
      <point x="767" y="630" type="curve" smooth="yes"/>
      <point x="767" y="675"/>
      <point x="722" y="704"/>
      <point x="664" y="704" type="curve" smooth="yes"/>
      <point x="632" y="704"/>
      <point x="586" y="696"/>
      <point x="544" y="662" type="curve"/>
      <point x="515" y="693"/>
      <point x="466" y="704"/>
      <point x="402" y="704" type="curve" smooth="yes"/>
      <point x="285" y="704"/>
      <point x="137" y="655"/>
      <point x="137" y="539" type="curve" smooth="yes"/>
      <point x="137" y="431" type="line"/>
      <point x="45" y="431" type="line"/>
      <point x="45" y="392" type="line"/>
      <point x="137" y="392" type="line"/>
      <point x="137" y="82" type="line" smooth="yes"/>
      <point x="137" y="39"/>
      <point x="127" y="39"/>
      <point x="58" y="39" type="curve"/>
      <point x="58" y="0" type="line"/>
      <point x="88" y="2"/>
      <point x="168" y="4"/>
      <point x="176" y="4" type="curve" smooth="yes"/>
      <point x="216" y="4"/>
      <point x="255" y="3"/>
      <point x="295" y="0" type="curve"/>
      <point x="295" y="39" type="line"/>
      <point x="226" y="39"/>
      <point x="216" y="39"/>
      <point x="216" y="82" type="curve" smooth="yes"/>
      <point x="216" y="392" type="line"/>
      <point x="487" y="392" type="line"/>
      <point x="487" y="82" type="line" smooth="yes"/>
      <point x="487" y="39"/>
      <point x="477" y="39"/>
      <point x="408" y="39" type="curve"/>
      <point x="408" y="0" type="line"/>
      <point x="433" y="2"/>
      <point x="507" y="4"/>
      <point x="529" y="4" type="curve" smooth="yes"/>
      <point x="581" y="4"/>
      <point x="650" y="1"/>
      <point x="664" y="0" type="curve"/>
      <point x="664" y="39" type="line"/>
      <point x="642" y="39" type="line" smooth="yes"/>
      <point x="567" y="39"/>
      <point x="566" y="49"/>
      <point x="566" y="83" type="curve" smooth="yes"/>
    </contour>
    <contour>
      <point x="212" y="431" type="line"/>
      <point x="212" y="537" type="line" smooth="yes"/>
      <point x="212" y="634"/>
      <point x="317" y="672"/>
      <point x="400" y="672" type="curve" smooth="yes"/>
      <point x="409" y="672"/>
      <point x="458" y="672"/>
      <point x="490" y="658" type="curve"/>
      <point x="489" y="657"/>
      <point x="466" y="645"/>
      <point x="466" y="616" type="curve" smooth="yes"/>
      <point x="466" y="604"/>
      <point x="470" y="585"/>
      <point x="490" y="575" type="curve"/>
      <point x="487" y="563"/>
      <point x="487" y="550"/>
      <point x="487" y="541" type="curve" smooth="yes"/>
      <point x="487" y="431" type="line"/>
    </contour>
  </outline>
</glyph>
<glyph name="ffi" format="2">
  <advance width="1055"/>
  <outline>
    <contour>
      <point x="918" y="443" type="line"/>
      <point x="871" y="440"/>
      <point x="825" y="437"/>
      <point x="778" y="434" type="curve" smooth="yes"/>
      <point x="767" y="433"/>
      <point x="763" y="433"/>
      <point x="760" y="432" type="curve"/>
      <point x="758" y="431"/>
      <point x="756" y="431"/>
      <point x="742" y="431" type="curve" smooth="yes"/>
      <point x="563" y="431" type="line"/>
      <point x="563" y="537" type="line" smooth="yes"/>
      <point x="563" y="636"/>
      <point x="674" y="672"/>
      <point x="751" y="672" type="curve" smooth="yes"/>
      <point x="779" y="672"/>
      <point x="818" y="668"/>
      <point x="851" y="648" type="curve"/>
      <point x="840" y="644"/>
      <point x="815" y="632"/>
      <point x="815" y="599" type="curve" smooth="yes"/>
      <point x="815" y="563"/>
      <point x="844" y="548"/>
      <point x="865" y="548" type="curve" smooth="yes"/>
      <point x="887" y="548"/>
      <point x="916" y="562"/>
      <point x="916" y="600" type="curve" smooth="yes"/>
      <point x="916" y="658"/>
      <point x="858" y="704"/>
      <point x="754" y="704" type="curve" smooth="yes"/>
      <point x="696" y="704"/>
      <point x="615" y="693"/>
      <point x="547" y="646" type="curve"/>
      <point x="528" y="677"/>
      <point x="480" y="704"/>
      <point x="401" y="704" type="curve" smooth="yes"/>
      <point x="290" y="704"/>
      <point x="137" y="657"/>
      <point x="137" y="539" type="curve" smooth="yes"/>
      <point x="137" y="431" type="line"/>
      <point x="45" y="431" type="line"/>
      <point x="45" y="392" type="line"/>
      <point x="137" y="392" type="line"/>
      <point x="137" y="82" type="line" smooth="yes"/>
      <point x="137" y="39"/>
      <point x="127" y="39"/>
      <point x="58" y="39" type="curve"/>
      <point x="58" y="0" type="line"/>
      <point x="88" y="2"/>
      <point x="168" y="4"/>
      <point x="176" y="4" type="curve" smooth="yes"/>
      <point x="216" y="4"/>
      <point x="255" y="3"/>
      <point x="295" y="0" type="curve"/>
      <point x="295" y="39" type="line"/>
      <point x="226" y="39"/>
      <point x="216" y="39"/>
      <point x="216" y="82" type="curve" smooth="yes"/>
      <point x="216" y="392" type="line"/>
      <point x="488" y="392" type="line"/>
      <point x="488" y="82" type="line" smooth="yes"/>
      <point x="488" y="39"/>
      <point x="478" y="39"/>
      <point x="409" y="39" type="curve"/>
      <point x="409" y="0" type="line"/>
      <point x="439" y="2"/>
      <point x="519" y="4"/>
      <point x="527" y="4" type="curve" smooth="yes"/>
      <point x="567" y="4"/>
      <point x="606" y="3"/>
      <point x="646" y="0" type="curve"/>
      <point x="646" y="39" type="line"/>
      <point x="577" y="39"/>
      <point x="567" y="39"/>
      <point x="567" y="82" type="curve" smooth="yes"/>
      <point x="567" y="392" type="line"/>
      <point x="789" y="392" type="line" smooth="yes"/>
      <point x="832" y="392"/>
      <point x="839" y="380"/>
      <point x="839" y="338" type="curve" smooth="yes"/>
      <point x="839" y="82" type="line" smooth="yes"/>
      <point x="839" y="39"/>
      <point x="829" y="39"/>
      <point x="760" y="39" type="curve"/>
      <point x="760" y="0" type="line"/>
      <point x="790" y="2"/>
      <point x="870" y="4"/>
      <point x="878" y="4" type="curve" smooth="yes"/>
      <point x="918" y="4"/>
      <point x="957" y="3"/>
      <point x="997" y="0" type="curve"/>
      <point x="997" y="39" type="line"/>
      <point x="928" y="39"/>
      <point x="918" y="39"/>
      <point x="918" y="82" type="curve" smooth="yes"/>
    </contour>
    <contour>
      <point x="212" y="431" type="line"/>
      <point x="212" y="537" type="line" smooth="yes"/>
      <point x="212" y="638"/>
      <point x="326" y="672"/>
      <point x="397" y="672" type="curve" smooth="yes"/>
      <point x="426" y="672"/>
      <point x="466" y="667"/>
      <point x="497" y="647" type="curve"/>
      <point x="460" y="636"/>
      <point x="460" y="605"/>
      <point x="460" y="599" type="curve" smooth="yes"/>
      <point x="460" y="591"/>
      <point x="461" y="567"/>
      <point x="488" y="554" type="curve"/>
      <point x="488" y="554"/>
      <point x="488" y="554"/>
      <point x="488" y="554" type="curve"/>
      <point x="488" y="431" type="line"/>
    </contour>
  </outline>
</glyph>
<glyph name="suppress" format="2">
  <advance width="351"/>
  <outline>
    <contour>
      <point x="320" y="355" type="line"/>
      <point x="310" y="392" type="line"/>
      <point x="45" y="318" type="line"/>
      <point x="56" y="280" type="line"/>
    </contour>
  </outline>
</glyph>
